<?xml version="1.0" standalone="no"?>
<!DOCTYPE svg PUBLIC "-//W3C//DTD SVG 1.1//EN" "http://www.w3.org/Graphics/SVG/1.1/DTD/svg11.dtd" >
<svg>
<metadata>
Created by FontForge 20090914 at Mon Dec 17 11:55:28 2018
 By www-data
Copyright (c) 2003 The Hoefler Type Foundry, Inc., dba Hoefler &#38; Frere-Jones. All Rights Reserved.
</metadata>
<defs>
<font id="GothamPro-Black" horiz-adv-x="500" >
  <font-face 
    font-family="Gotham Pro Black"
    font-weight="400"
    font-stretch="normal"
    units-per-em="1000"
    panose-1="2 0 9 3 4 0 0 2 0 4"
    ascent="800"
    descent="-200"
    x-height="541"
    cap-height="700"
    bbox="-73 -173 1260 932"
    underline-thickness="20"
    underline-position="-153"
    unicode-range="U+0020-U+FB04"
  />
<missing-glyph 
d="M0 0v700h500v-700h-500zM81 49h339l-170 255zM49 96l171 254l-171 254v-508zM450 96v508l-171 -254zM250 395l170 255h-339z" />
    <glyph glyph-name="fi" unicode="fi" horiz-adv-x="704" 
d="M85 0l0.000976562 388.999h-63v149h63v12c0 62.667 15.333 109.334 46 140.001c31.333 31.333 78.333 47 141 47c49.333 0 90.666 -5 123.999 -15v-134c-23.333 7.33301 -47 11 -71 11c-36 0 -54 -17 -54 -51v-13h124v-146h-121v-389h-189zM459.001 -0.000976562v541h190
v-541h-190zM455.001 589.999v140h198v-140h-198z" />
    <glyph glyph-name="fl" unicode="fl" horiz-adv-x="704" 
d="M85 0l0.000976562 388.999h-63v149h63v12c0 62.667 15.333 109.334 46 140.001c31.333 31.333 78.333 47 141 47c49.333 0 90.666 -5 123.999 -15v-134c-23.333 7.33301 -47 11 -71 11c-36 0 -54 -17 -54 -51v-13h124v-146h-121v-389h-189zM459.001 -0.000976562v730h190
v-730h-190z" />
    <glyph glyph-name="ffi" unicode="ffi" horiz-adv-x="1108" 
d="M85 0l0.000976562 388.999h-63v149h63v12c0 62.667 15.333 109.334 46 140.001c31.333 31.333 78.333 47 141 47c49.333 0 90.666 -5 123.999 -15v-134c-23.333 7.33301 -47 11 -71 11c-36 0 -54 -17 -54 -51v-13h124v-146h-121v-389h-189zM489.001 -0.000976562
l0.000976562 388.999h-64v146h64v15c0 62.667 15.333 109.334 46 140.001c30.667 31.333 77.667 47 141 47c49.333 0 90.666 -5 123.999 -15v-134c-23.333 7.33301 -47 11 -71 11c-36 0 -54 -17 -54 -51v-13h124v-146h-121v-389h-189zM863.002 -0.00195312v541h190v-541
h-190zM859.002 589.998v140h198v-140h-198z" />
    <glyph glyph-name="ffl" unicode="ffl" horiz-adv-x="1108" 
d="M85 0l0.000976562 388.999h-63v149h63v12c0 62.667 15.333 109.334 46 140.001c31.333 31.333 78.333 47 141 47c49.333 0 90.666 -5 123.999 -15v-134c-23.333 7.33301 -47 11 -71 11c-36 0 -54 -17 -54 -51v-13h124v-146h-121v-389h-189zM489.001 -0.000976562
l0.000976562 388.999h-64v146h64v15c0 62.667 15.333 109.334 46 140.001c30.667 31.333 77.667 47 141 47c49.333 0 90.666 -5 123.999 -15v-134c-23.333 7.33301 -47 11 -71 11c-36 0 -54 -17 -54 -51v-13h124v-146h-121v-389h-189zM863.002 -0.00195312v730h190v-730
h-190z" />
    <glyph glyph-name=".notdef" 
d="M0 0v700h500v-700h-500zM81 49h339l-170 255zM49 96l171 254l-171 254v-508zM450 96v508l-171 -254zM250 395l170 255h-339z" />
    <glyph glyph-name="space" unicode=" " horiz-adv-x="277" 
 />
    <glyph glyph-name="exclam" unicode="!" horiz-adv-x="324" 
d="M63 0v170h198v-170h-198zM112 228l-58 387v85h216v-85l-58 -387h-100z" />
    <glyph glyph-name="quotedbl" unicode="&#x22;" horiz-adv-x="537" 
d="M34 341l22 359h204v-5l-127 -354h-99zM290 341l23 359h204v-5l-127 -354h-100z" />
    <glyph glyph-name="numbersign" unicode="#" horiz-adv-x="706" 
d="M84 0l23 135h-78v161h106l19 112h-92v161h120l22 131h145l-23 -131h127l22 131h145l-22 -131h78v-161h-106l-19 -112h92v-161h-119l-24 -135h-145l24 135h-127l-23 -135h-145zM275 292h134l20 120h-133z" />
    <glyph glyph-name="dollar" unicode="$" horiz-adv-x="666" 
d="M295 -98v99.999c-102.667 10.667 -192.667 43.667 -270 99l90 133c64 -44.667 126 -72 186 -82v120c-84 19.333 -145.5 45.333 -184.5 78s-58.5 79.334 -58.5 140.001c0 60 21 108.833 63 146.5s100.667 59.167 176 64.5v57h104v-60c76.667 -8.66699 147 -34.667 211 -78
l-82 -134c-39.333 28 -84 48 -134 60v-116c82.667 -19.333 143.167 -45.666 181.5 -78.999s57.5 -80.333 57.5 -141c0 -60 -21.167 -108.333 -63.5 -145s-99.833 -58.334 -172.5 -65.001v-98h-104zM395 145.999c44.667 4.66699 67 22.334 67 53.001
c0 14 -4.83301 25.167 -14.5 33.5s-27.167 16.166 -52.5 23.499v-110zM302 446.999v107.998c-45.333 -4 -68 -21.333 -68 -52c0 -13.333 4.83301 -24.166 14.5 -32.499s27.5 -16.166 53.5 -23.499z" />
    <glyph glyph-name="percent" unicode="%" horiz-adv-x="899" 
d="M112 0l540 700h135l-540 -700h-135zM683 -10c-52.667 0 -95.832 18.167 -129.499 54.5s-50.5 81.166 -50.5 134.499c0 52.667 16.667 97.167 50 133.5s77 54.5 131 54.5c53.333 0 96.666 -18.167 129.999 -54.5s50 -81.166 50 -134.499c0 -52 -17 -96.333 -51 -133
s-77.333 -55 -130 -55zM684.002 100c16.667 0 30.5 7.33203 41.5 21.999s16.5 33.667 16.5 57c0 22.667 -5.5 41.334 -16.5 56.001s-25.167 22 -42.5 22c-18 0 -32.167 -7.16699 -42.5 -21.5s-15.5 -33.5 -15.5 -57.5c0 -22 5.66699 -40.5 17 -55.5s25.333 -22.5 42 -22.5z
M215.002 332.999c-53.333 0 -96.666 18.167 -129.999 54.5s-50 81.166 -50 134.499c0 52.667 16.667 97.167 50 133.5s77 54.5 131 54.5c53.333 0 96.666 -18.167 129.999 -54.5s50 -81.166 50 -134.499c0 -52.667 -17 -97.167 -51 -133.5s-77.333 -54.5 -130 -54.5z
M216.002 442.999c16.667 0 30.5 7.33398 41.5 22.001s16.5 33.667 16.5 57c0 22 -5.66699 40.5 -17 55.5s-25.333 22.5 -42 22.5c-17.333 0 -31.333 -7.33301 -42 -22s-16 -33.667 -16 -57c0 -22.667 5.66699 -41.334 17 -56.001s25.333 -22 42 -22z" />
    <glyph glyph-name="ampersand" unicode="&#x26;" horiz-adv-x="698" 
d="M551 -14l-71.999 73c-62 -47.333 -131.333 -71 -208 -71c-73.333 0 -133.333 18.167 -180 54.5s-70 86.166 -70 149.499c0 88 47.333 153.333 142 196c-30.667 44 -46 89.333 -46 136c0 52.667 20 97.5 60 134.5s93.333 55.5 160 55.5c62.667 0 113 -17.167 151 -51.5
s57 -77.833 57 -130.5c0 -79.333 -45.667 -140 -137 -182l78 -76c20.667 30 42.667 67 66 111l128 -64c-32.667 -59.333 -63.334 -108.666 -92.001 -147.999l94 -93zM297.001 131c25.333 0 53 10.001 83 30.001l-115 117c-33.333 -20 -50 -46 -50 -78
c0 -20.667 7.66699 -37.334 23 -50.001s35 -19 59 -19zM317.001 437.001c49.333 22 74 51.333 74 88c0 16.667 -5 30.167 -15 40.5s-23 15.5 -39 15.5c-16.667 0 -30.167 -5.83301 -40.5 -17.5s-15.5 -27.167 -15.5 -46.5c0 -23.333 12 -50 36 -80z" />
    <glyph glyph-name="quotesingle" unicode="'" horiz-adv-x="284" 
d="M34 341l22 359h208v-5l-127 -354h-103z" />
    <glyph glyph-name="parenleft" unicode="(" horiz-adv-x="445" 
d="M336 -141c-97.333 50.667 -170.333 110.165 -219 178.498s-73 151.5 -73 249.5s24.333 181.167 73 249.5s121.667 127.833 219 178.5l79 -118c-65.333 -44.667 -112.5 -91.167 -141.5 -139.5s-43.5 -105.166 -43.5 -170.499s14.5 -122.166 43.5 -170.499
s76.167 -94.833 141.5 -139.5z" />
    <glyph glyph-name="parenright" unicode=")" horiz-adv-x="445" 
d="M109 -141l-79 118.002c65.333 44.667 112.5 91.167 141.5 139.5s43.5 105.166 43.5 170.499s-14.5 122.166 -43.5 170.499s-76.167 94.833 -141.5 139.5l79 118c97.333 -50.667 170.333 -110.167 219 -178.5s73 -151.5 73 -249.5s-24.333 -181.167 -73 -249.5
s-121.667 -127.833 -219 -178.5z" />
    <glyph glyph-name="asterisk" unicode="*" horiz-adv-x="425" 
d="M160 339l25 132l-103 -88l-54 92l127 45l-127 45l54 93l103 -88l-25 132h105l-25 -132l103 88l54 -93l-127 -45l127 -45l-54 -92l-103 88l25 -132h-105z" />
    <glyph glyph-name="plus" unicode="+" horiz-adv-x="640" 
d="M233 96v172h-169v168h169v172h174v-172h169v-168h-169v-172h-174z" />
    <glyph glyph-name="comma" unicode="," horiz-adv-x="284" 
d="M35 -165l-15 73c66.667 8 100 38 100 90v4h-77v195h198v-159c0 -70.667 -17.667 -121.667 -53 -153s-86.333 -48 -153 -50z" />
    <glyph glyph-name="hyphen" unicode="-" horiz-adv-x="408" 
d="M40 229v167h328v-167h-328z" />
    <glyph glyph-name="period" unicode="." horiz-adv-x="284" 
d="M43 0v195h198v-195h-198z" />
    <glyph glyph-name="slash" unicode="/" horiz-adv-x="535" 
d="M-38 -128l443 926h154l-443 -926h-154z" />
    <glyph glyph-name="zero" unicode="0" horiz-adv-x="730" 
d="M364 -14c-97.333 0 -175.5 34.833 -234.5 104.5s-88.5 156.167 -88.5 259.5c0 102 30 188.167 90 258.5s138.333 105.5 235 105.5c97.333 0 175.5 -35 234.5 -105s88.5 -156.333 88.5 -259c0 -102 -29.833 -188.167 -89.5 -258.5s-138.167 -105.5 -235.5 -105.5zM366 158
c38.667 0 69.667 17.832 93 53.499s35 81.834 35 138.501c0 56 -12.167 102 -36.5 138s-55.5 54 -93.5 54c-38.667 0 -69.667 -17.667 -93 -53s-35 -81.666 -35 -138.999c0 -56.667 12 -102.834 36 -138.501s55.333 -53.5 94 -53.5z" />
    <glyph glyph-name="one" unicode="1" horiz-adv-x="422" 
d="M163 0v524l-118 -27l-37 150l205 58h141v-705h-191z" />
    <glyph glyph-name="two" unicode="2" horiz-adv-x="624" 
d="M33 0l-0.00488281 146.002l262 200c32.667 24.667 55.834 46.5 69.501 65.5s20.5 39.167 20.5 60.5c0 22 -7.16699 39.333 -21.5 52s-33.166 19 -56.499 19c-22.667 0 -44.5 -6.83301 -65.5 -20.5s-45.5 -36.834 -73.5 -69.501l-131 109c40 52 81.333 90 124 114
s96.334 36 161.001 36c76.667 0 138.834 -20.833 186.501 -62.5s71.5 -95.834 71.5 -162.501c0 -52.667 -12.667 -96.5 -38 -131.5s-66.666 -72.833 -123.999 -113.5l-120 -84h289v-158h-554z" />
    <glyph glyph-name="three" unicode="3" horiz-adv-x="621" 
d="M316 -14c-124 0 -223.333 41.332 -298 123.999l122 122c52 -53.333 107.667 -80 167 -80c27.333 0 49.166 6.5 65.499 19.5s24.5 30.833 24.5 53.5s-10 40.334 -30 53.001s-48 19 -84 19h-82l-28 101l161 145h-268v157h506v-139l-167 -143
c120.667 -26.667 181 -93 181 -199c0 -70 -25.167 -126.333 -75.5 -169s-115.166 -64 -194.499 -64z" />
    <glyph glyph-name="four" unicode="4" horiz-adv-x="689" 
d="M384 0v136h-339l-32 137l363 432h196v-424h89v-145h-89v-136h-188zM217 280h167v201z" />
    <glyph glyph-name="five" unicode="5" horiz-adv-x="630" 
d="M303 -14c-110 0 -204.666 37 -283.999 111l111 130c60 -50.667 116.667 -76 170 -76c32 0 57.167 7.5 75.5 22.5s27.5 35.5 27.5 61.5c0 24.667 -9.5 44.334 -28.5 59.001s-43.833 22 -74.5 22c-36 0 -73.333 -11.667 -112 -35l-115 64l20 355h468v-160h-315l-6 -106
c35.333 16.667 72.666 25 111.999 25c68 0 125 -19.167 171 -57.5s69 -93.833 69 -166.5c0 -76.667 -26.5 -137.334 -79.5 -182.001s-122.833 -67 -209.5 -67z" />
    <glyph glyph-name="six" unicode="6" horiz-adv-x="662" 
d="M341 -14c-89.333 0 -160.669 26.668 -214.002 80.001c-57.333 57.333 -86 145.333 -86 264c0 114 27.833 206.5 83.5 277.5s136.167 106.5 241.5 106.5c86.667 0 164.334 -25.667 233.001 -77l-91 -137c-47.333 35.333 -93.666 53 -138.999 53
c-39.333 0 -70 -13.333 -92 -40s-35.333 -63 -40 -109c47.333 36 97.666 54 150.999 54c64.667 0 119.334 -19.667 164.001 -59s67 -93 67 -161c0 -76.667 -26.667 -137.834 -80 -183.501s-119.333 -68.5 -198 -68.5zM332.997 137.001c30 0 53.667 8.50098 71 25.501
s26 39.167 26 66.5c0 25.333 -9 46.666 -27 63.999s-42 26 -72 26s-53.667 -8.5 -71 -25.5s-26 -38.833 -26 -65.5c0 -26 9 -47.667 27 -65s42 -26 72 -26z" />
    <glyph glyph-name="seven" unicode="7" horiz-adv-x="614" 
d="M62 0l308 537h-324v163h539v-146l-309 -554h-214z" />
    <glyph glyph-name="eight" unicode="8" horiz-adv-x="630" 
d="M315 -12c-84.667 0 -153.833 19.168 -207.5 57.501s-80.5 88.166 -80.5 149.499c0 78 40 134 120 168c-64 35.333 -96 86.666 -96 153.999c0 56.667 24.5 103.334 73.5 140.001s112.5 55 190.5 55s141.5 -18.5 190.5 -55.5s73.5 -84.167 73.5 -141.5
c0 -66 -32 -116.667 -96 -152c38.667 -18 68.334 -40.167 89.001 -66.5s31 -60.5 31 -102.5c0 -62 -26.833 -111.833 -80.5 -149.5s-122.834 -56.5 -207.501 -56.5zM315.001 133.001c31.333 0 56 7.83105 74 23.498s27 34.834 27 57.501s-9.5 41 -28.5 55
s-43.167 21 -72.5 21c-30 0 -54.333 -7.16699 -73 -21.5s-28 -33.166 -28 -56.499c0 -22 9 -40.667 27 -56s42.667 -23 74 -23zM315.001 415.999c26 0 46.833 7.16699 62.5 21.5s23.5 33.166 23.5 56.499c0 20 -8 37.333 -24 52s-36.667 22 -62 22
c-26 0 -46.833 -7.16699 -62.5 -21.5s-23.5 -32.166 -23.5 -53.499c0 -22 7.83301 -40.333 23.5 -55s36.5 -22 62.5 -22z" />
    <glyph glyph-name="nine" unicode="9" horiz-adv-x="662" 
d="M297 -14c-92 0 -173.331 27.666 -243.998 82.999l91 134c47.333 -37.333 97.333 -56 150 -56c39.333 0 70 12.833 92 38.5s35.333 61.5 40 107.5c-40 -38 -89.333 -57 -148 -57c-69.333 0 -125.833 20 -169.5 60s-65.5 94.333 -65.5 163
c0 76.667 26.167 138.334 78.5 185.001s119.166 70 200.499 70c49.333 0 90.5 -6.66699 123.5 -20s63.5 -34 91.5 -62c56 -54.667 84 -141.667 84 -261c0 -117.333 -28.333 -210.833 -85 -280.5s-136.334 -104.5 -239.001 -104.5zM331.002 374.999
c30 0 53.833 8.66895 71.5 26.002s26.5 39.666 26.5 66.999s-9.16699 50 -27.5 68s-42.5 27 -72.5 27s-53.833 -8.83301 -71.5 -26.5s-26.5 -40.834 -26.5 -69.501c0 -26.667 9.16699 -48.667 27.5 -66s42.5 -26 72.5 -26z" />
    <glyph glyph-name="colon" unicode=":" horiz-adv-x="294" 
d="M48 0v195h198v-195h-198zM48 346v195h198v-195h-198z" />
    <glyph glyph-name="semicolon" unicode=";" horiz-adv-x="294" 
d="M40 -167l-15 73c66.667 8 100 38 100 90v4h-77v195h198v-159c0 -70.667 -17.667 -121.667 -53 -153s-86.333 -48 -153 -50zM48 346v195h198v-195h-198z" />
    <glyph glyph-name="less" unicode="&#x3c;" horiz-adv-x="640" 
d="M562 65l-497 198v177l497 198v-177l-327 -109l327 -109v-178z" />
    <glyph glyph-name="equal" unicode="=" horiz-adv-x="640" 
d="M74 134v167h491v-167h-491zM74 403v167h491v-167h-491z" />
    <glyph glyph-name="greater" unicode="&#x3e;" horiz-adv-x="640" 
d="M78 65v177l327 109l-327 109v178l497 -198v-177z" />
    <glyph glyph-name="question" unicode="?" horiz-adv-x="540" 
d="M150 0v170h197v-170h-197zM191 228l-25.001 167l8 9c56 4.66699 96.167 13.667 120.5 27s36.5 31.333 36.5 54c0 17.333 -6.5 30.833 -19.5 40.5s-31.5 14.5 -55.5 14.5c-48 0 -96.667 -22 -146 -66l-100 132c70 70 156.333 105 259 105c74.667 0 135 -19 181 -57
s69 -89.667 69 -155c0 -58.667 -17.167 -104.167 -51.5 -136.5s-82.166 -55.833 -143.499 -70.5l-12 -64h-121z" />
    <glyph glyph-name="at" unicode="@" horiz-adv-x="965" 
d="M491 -162c-128 0 -234.332 42.333 -318.999 127s-127 188 -127 310c0 121.333 42.667 224.833 128 310.5s190.333 128.5 315 128.5c121.333 0 223.5 -38.667 306.5 -116s124.5 -168.333 124.5 -273c0 -85.333 -20.833 -151.333 -62.5 -198s-91.834 -70 -150.501 -70
c-73.333 0 -124.666 25.333 -153.999 76c-42.667 -49.333 -91.667 -74 -147 -74c-52.667 0 -96.334 18.5 -131.001 55.5s-52 85.5 -52 145.5c0 71.333 21.833 132.5 65.5 183.5s95.5 76.5 155.5 76.5c58 0 102.667 -24.667 134 -74l12 61l155 -24l-46 -258
c-2.66699 -13.333 -4 -28 -4 -44c0 -17.333 5.83301 -31.5 17.5 -42.5s27.5 -16.5 47.5 -16.5c34 0 62.167 17.833 84.5 53.5s33.5 85.5 33.5 149.5c0 94.667 -37 176.5 -111 245.5s-166.667 103.5 -278 103.5c-115.333 0 -211 -38.5 -287 -115.5s-114 -171.5 -114 -283.5
c0 -112.667 37.833 -207 113.5 -283s172.5 -114 290.5 -114c87.333 0 169 22.333 245 67l20 -32c-82 -50 -170.333 -75 -265 -75zM455.001 194c26.667 0 49.334 11.168 68.001 33.501s28 49.5 28 81.5c0 23.333 -6.83301 41.833 -20.5 55.5s-31.167 20.5 -52.5 20.5
c-26.667 0 -49.334 -11 -68.001 -33s-28 -48.667 -28 -80c0 -24.667 6.83301 -43.834 20.5 -57.501s31.167 -20.5 52.5 -20.5z" />
    <glyph glyph-name="A" unicode="A" horiz-adv-x="795" 
d="M6 0l298 705h187l298 -705h-208l-51 125h-270l-50 -125h-204zM317 276h157l-78 199z" />
    <glyph glyph-name="B" unicode="B" horiz-adv-x="715" 
d="M62 0v700h359c85.333 0 149 -21 191 -63c30 -30 45 -68.333 45 -115c0 -72.667 -36 -124.667 -108 -156c45.333 -14.667 79.833 -35.667 103.5 -63s35.5 -64 35.5 -110c0 -60 -23.333 -107.167 -70 -141.5s-111.667 -51.5 -195 -51.5h-361zM251 156h150c62 0 93 22 93 66
c0 42 -31.667 63 -95 63h-148v-129zM251 421h122c61.333 0 92 21 92 63c0 40 -29.333 60 -88 60h-126v-123z" />
    <glyph glyph-name="C" unicode="C" horiz-adv-x="730" 
d="M399 -14c-101.333 0 -186.831 34.5 -256.498 103.5s-104.5 155.833 -104.5 260.5c0 102.667 35.167 189 105.5 259s158.166 105 263.499 105c124.667 0 222.667 -49.333 294 -148l-142 -110c-43.333 54 -94.666 81 -153.999 81c-48.667 0 -88.667 -18 -120 -54
s-47 -80.333 -47 -133c0 -53.333 15.667 -97.833 47 -133.5s71.333 -53.5 120 -53.5c34 0 63 7.16699 87 21.5s47.667 35.5 71 63.5l146 -104c-36.667 -50 -79.334 -88.833 -128.001 -116.5s-109.334 -41.5 -182.001 -41.5z" />
    <glyph glyph-name="D" unicode="D" horiz-adv-x="765" 
d="M62 0l-0.000976562 700h270c122.667 0 219.167 -32 289.5 -96s105.5 -148 105.5 -252c0 -103.333 -35.667 -187.833 -107 -253.5s-168.666 -98.5 -291.999 -98.5h-266zM255.999 172h79c58.667 0 105.5 15.667 140.5 47s52.5 75.333 52.5 132c0 55.333 -17.5 99 -52.5 131
s-81.833 48 -140.5 48h-79v-358z" />
    <glyph glyph-name="E" unicode="E" horiz-adv-x="667" 
d="M62 0v700h563v-165h-371v-106h336v-153h-336v-111h376v-165h-568z" />
    <glyph glyph-name="F" unicode="F" horiz-adv-x="648" 
d="M62 0v700h560v-170h-366v-119h331v-161h-331v-250h-194z" />
    <glyph glyph-name="G" unicode="G" horiz-adv-x="769" 
d="M419 -14c-110 0 -201.001 34.167 -273.001 102.5s-108 155.5 -108 261.5c0 102.667 35.833 189 107.5 259s161.5 105 269.5 105c110.667 0 205.334 -34 284.001 -102l-114 -137c-52.667 44 -109 66 -169 66c-50.667 0 -93.167 -18.667 -127.5 -56
s-51.5 -83.333 -51.5 -138c0 -56.667 17.833 -103.167 53.5 -139.5s81.167 -54.5 136.5 -54.5c45.333 0 82.666 9.66699 111.999 29v85h-138v142h322v-315c-87.333 -72 -188.666 -108 -303.999 -108z" />
    <glyph glyph-name="H" unicode="H" horiz-adv-x="761" 
d="M62 0v700h194v-262h249v262h194v-700h-194v266h-249v-266h-194z" />
    <glyph glyph-name="I" unicode="I" horiz-adv-x="327" 
d="M66 0v700h195v-700h-195z" />
    <glyph glyph-name="J" unicode="J" horiz-adv-x="564" 
d="M250 -12c-106.667 0 -188.667 39.333 -246 118l125 118c36 -43.333 72.333 -65 109 -65c25.333 0 45 8.33301 59 25s21 41 21 73v443h193v-444c0 -85.333 -23 -151 -69 -197c-47.333 -47.333 -111.333 -71 -192 -71z" />
    <glyph glyph-name="K" unicode="K" horiz-adv-x="730" 
d="M62 0v700h194v-284l241 284h230l-265 -301l274 -399h-233l-176 260l-71 -79v-181h-194z" />
    <glyph glyph-name="L" unicode="L" horiz-adv-x="616" 
d="M62 0v700h194v-530h339v-170h-533z" />
    <glyph glyph-name="M" unicode="M" horiz-adv-x="868" 
d="M62 0v700h205l167 -271l167 271h205v-700h-193v402l-179 -274h-4l-178 272v-400h-190z" />
    <glyph glyph-name="N" unicode="N" horiz-adv-x="785" 
d="M62 0v700h181l288 -370v370h192v-700h-170l-299 384v-384h-192z" />
    <glyph glyph-name="O" unicode="O" horiz-adv-x="831" 
d="M414 -14c-107.333 0 -196.833 35.167 -268.5 105.5s-107.5 156.5 -107.5 258.5c0 101.333 36.167 187.333 108.5 258s162.166 106 269.499 106s196.833 -35.167 268.5 -105.5s107.5 -156.5 107.5 -258.5c0 -101.333 -36.167 -187.333 -108.5 -258
s-162.166 -106 -269.499 -106zM416 161c52.667 0 95.5 18.333 128.5 55s49.5 81.334 49.5 134.001c0 52 -17 96.5 -51 133.5s-77 55.5 -129 55.5s-94.5 -18.333 -127.5 -55s-49.5 -81.334 -49.5 -134.001c0 -52 16.833 -96.5 50.5 -133.5s76.5 -55.5 128.5 -55.5z" />
    <glyph glyph-name="P" unicode="P" horiz-adv-x="673" 
d="M62 0l0.000976562 700h300c89.333 0 160.166 -21.833 212.499 -65.5s78.5 -104.5 78.5 -182.5c0 -80 -27.667 -142 -83 -186s-128 -66 -218 -66h-96v-200h-194zM256.001 352l91.999 -0.000976562c34.667 0 61.834 8.33301 81.501 25s29.5 39.334 29.5 68.001
c0 30 -9.83301 52.833 -29.5 68.5s-47.167 23.5 -82.5 23.5h-91v-185z" />
    <glyph glyph-name="Q" unicode="Q" horiz-adv-x="831" 
d="M704 -21l-76.999 69c-63.333 -41.333 -134.333 -62 -213 -62c-107.333 0 -196.833 35.167 -268.5 105.5s-107.5 156.5 -107.5 258.5c0 101.333 36.167 187.333 108.5 258s162.166 106 269.499 106s196.833 -35.167 268.5 -105.5s107.5 -156.5 107.5 -258.5
c0 -75.333 -20.667 -142.333 -62 -201l72 -61zM416.001 158c24.667 0 48.333 4.33398 71 13.001l-97 83l98 110l95 -86c8 21.333 12 44.666 12 69.999c0 52.667 -17 97.667 -51 135s-77.333 56 -130 56c-52 0 -94.5 -18.667 -127.5 -56s-49.5 -82.333 -49.5 -135
c0 -52 16.833 -96.667 50.5 -134s76.5 -56 128.5 -56z" />
    <glyph glyph-name="R" unicode="R" horiz-adv-x="719" 
d="M62 0v700h331c102 0 178 -25 228 -75c41.333 -41.333 62 -96.666 62 -165.999c0 -102.667 -48 -174.334 -144 -215.001l167 -244h-224l-141 212h-85v-212h-194zM256 364h127.999c32.667 0 58.167 7.5 76.5 22.5s27.5 35.833 27.5 62.5c0 27.333 -9.16699 48 -27.5 62
s-44.166 21 -77.499 21h-127v-168z" />
    <glyph glyph-name="S" unicode="S" horiz-adv-x="652" 
d="M337 -12c-132 0 -241.333 38.667 -328 116l108 129c70 -56 145.667 -84 227 -84c53.333 0 80 16.667 80 50c0 14.667 -8 26.834 -24 36.501s-47.333 19.834 -94 30.501c-42.667 10 -77.834 19.833 -105.501 29.5s-54.667 22.667 -81 39s-45.833 37.166 -58.5 62.499
s-19 55.666 -19 90.999c0 66 24.5 119.833 73.5 161.5s114.833 62.5 197.5 62.5c114.667 0 210.667 -31 288 -93l-97 -137c-65.333 46 -130.666 69 -195.999 69c-22.667 0 -40 -4.33301 -52 -13s-18 -20 -18 -34c0 -16 8.16699 -28.667 24.5 -38s48.5 -19.333 96.5 -30
c88 -19.333 153.5 -45.166 196.5 -77.499s64.5 -79.833 64.5 -142.5c0 -70.667 -25.667 -126.334 -77 -167.001s-120 -61 -206 -61z" />
    <glyph glyph-name="T" unicode="T" horiz-adv-x="660" 
d="M233 0v530h-210v170h614v-170h-210v-530h-194z" />
    <glyph glyph-name="U" unicode="U" horiz-adv-x="758" 
d="M377 -13c-102.667 0 -182.333 26.667 -239 80s-85 133.333 -85 240v393h197v-389c0 -49.333 11.5 -86.5 34.5 -111.5s54.5 -37.5 94.5 -37.5s71.5 12 94.5 36s34.5 60 34.5 108v394h197v-388c0 -109.333 -28.833 -190.833 -86.5 -244.5s-138.167 -80.5 -241.5 -80.5z" />
    <glyph glyph-name="V" unicode="V" horiz-adv-x="760" 
d="M290 -5l-284 705h217l159 -443l159 443h213l-284 -705h-180z" />
    <glyph glyph-name="W" unicode="W" horiz-adv-x="1117" 
d="M249 -5l-234 705h205l122 -405l135 407h167l135 -407l122 405h201l-234 -705h-169l-141 403l-140 -403h-169z" />
    <glyph glyph-name="X" unicode="X" horiz-adv-x="732" 
d="M11 0l240 356l-230 344h223l124 -197l125 197h218l-230 -342l240 -358h-223l-134 211l-135 -211h-218z" />
    <glyph glyph-name="Y" unicode="Y" horiz-adv-x="723" 
d="M264 0v262l-266 438h221l144 -255l145 255h217l-266 -435v-265h-195z" />
    <glyph glyph-name="Z" unicode="Z" horiz-adv-x="698" 
d="M40 0v141l351 395h-339v164h607v-141l-351 -395h351v-164h-619z" />
    <glyph glyph-name="bracketleft" unicode="[" horiz-adv-x="457" 
d="M66 -130v830h346v-129h-176v-572h176v-129h-346z" />
    <glyph glyph-name="backslash" unicode="\" horiz-adv-x="535" 
d="M419 -128l-443 926h154l443 -926h-154z" />
    <glyph glyph-name="bracketright" unicode="]" horiz-adv-x="457" 
d="M45 -130v129h176v572h-176v129h346v-830h-346z" />
    <glyph glyph-name="asciicircum" unicode="^" 
d="M42 493l144 206h128l144 -206h-133l-76 97l-76 -97h-131z" />
    <glyph glyph-name="underscore" unicode="_" horiz-adv-x="600" 
d="M-2 -160v116h604v-116h-604z" />
    <glyph glyph-name="grave" unicode="`" 
d="M235 587l-147 128l177 57l104 -185h-134z" />
    <glyph glyph-name="a" unicode="a" horiz-adv-x="599" 
d="M206 -12c-53.333 0 -96.998 14.833 -130.998 44.5s-51 71.167 -51 124.5c0 54.667 19 96.667 57 126s89.667 44 155 44c47.333 0 90.666 -7 129.999 -21v9c0 58.667 -36 88 -108 88c-48.667 0 -98.334 -10 -149.001 -30l-39 134c68 28 141 42 219 42
c93.333 0 162 -22 206 -66c38.667 -38 58 -95.333 58 -172v-311h-188v56c-40.667 -45.333 -93.667 -68 -159 -68zM274.002 107c28 0 50.666 8.16602 67.999 24.499s26 37.833 26 64.5v25c-22 9.33301 -46.667 14 -74 14s-48.666 -6.16699 -63.999 -18.5
s-23 -29.166 -23 -50.499c0 -18 6.16699 -32.333 18.5 -43s28.5 -16 48.5 -16z" />
    <glyph glyph-name="b" unicode="b" horiz-adv-x="676" 
d="M406 -12c-65.333 0 -120.334 26.001 -165.001 78.001v-66h-190v730h190v-261c46 56 100.667 84 164 84c66.667 0 123.334 -25.833 170.001 -77.5s70 -119.834 70 -204.501c0 -85.333 -23.167 -153.833 -69.5 -205.5s-102.833 -77.5 -169.5 -77.5zM346.999 147.001
c31.333 0 57.666 11.666 78.999 34.999s32 53.333 32 90c0 35.333 -10.667 64.5 -32 87.5s-47.666 34.5 -78.999 34.5c-30.667 0 -56.667 -11.667 -78 -35s-32 -53 -32 -89c0 -35.333 10.667 -64.666 32 -87.999s47.333 -35 78 -35z" />
    <glyph glyph-name="c" unicode="c" horiz-adv-x="569" 
d="M312 -13c-80.667 0 -148 27.5 -202 82.5s-81 121.833 -81 200.5c0 78 27.333 144.5 82 199.5s124 82.5 208 82.5c103.333 0 180.333 -40.333 231 -121l-127 -92c-25.333 35.333 -58 53 -98 53c-34 0 -61 -11.667 -81 -35s-30 -52.333 -30 -87
c0 -35.333 10 -64.666 30 -87.999s46 -35 78 -35c21.333 0 39.5 4.66699 54.5 14s30.833 23.666 47.5 42.999l129 -93c-56 -82.667 -136.333 -124 -241 -124z" />
    <glyph glyph-name="d" unicode="d" horiz-adv-x="676" 
d="M270 -12c-66.667 0 -123.166 25.832 -169.499 77.499s-69.5 119.834 -69.5 204.501c0 85.333 23 153.833 69 205.5s102.333 77.5 169 77.5c65.333 0 120.666 -26 165.999 -78v255h190v-730h-190v72c-46 -56 -101 -84 -165 -84zM328.001 146.999
c30.667 0 56.665 11.666 77.998 34.999s32 53.333 32 90c0 35.333 -10.667 64.5 -32 87.5s-47.333 34.5 -78 34.5c-31.333 0 -57.666 -11.667 -78.999 -35s-32 -53 -32 -89c0 -35.333 10.833 -64.666 32.5 -87.999s47.834 -35 78.501 -35z" />
    <glyph glyph-name="e" unicode="e" horiz-adv-x="605" 
d="M319 -13c-85.333 0 -155 26 -209 78s-81 120.333 -81 205c0 80 25.667 147.167 77 201.5s116.666 81.5 195.999 81.5c88.667 0 156.334 -28 203.001 -84s70 -126.667 70 -212c0 -17.333 -0.333008 -30.333 -1 -39h-362c15.333 -59.333 54.333 -89 117 -89
c42.667 0 82.667 18.333 120 55l105 -87c-58 -73.333 -136.333 -110 -235 -110zM209 315h187.999c-3.33301 30 -13.333 53.833 -30 71.5s-38 26.5 -64 26.5c-24.667 0 -45.167 -8.83301 -61.5 -26.5s-27.166 -41.5 -32.499 -71.5z" />
    <glyph glyph-name="f" unicode="f" horiz-adv-x="404" 
d="M85 0l0.000976562 388.999h-63v149h63v12c0 62.667 15.333 109.334 46 140.001c31.333 31.333 78.333 47 141 47c49.333 0 90.666 -5 123.999 -15v-134c-23.333 7.33301 -47 11 -71 11c-36 0 -54 -17 -54 -51v-13h124v-146h-121v-389h-189z" />
    <glyph glyph-name="g" unicode="g" horiz-adv-x="676" 
d="M317 -162c-100 0 -190.332 20.668 -270.999 62.001l61 126c61.333 -34 124.333 -51 189 -51c94.667 0 142 44.333 142 133v21c-46.667 -54 -102.334 -81 -167.001 -81c-68.667 0 -125.834 23 -171.501 69s-68.5 107.333 -68.5 184c0 75.333 22.833 136.166 68.5 182.499
s100.834 69.5 165.501 69.5c65.333 0 122 -25.333 170 -76v64h190v-411c0 -97.333 -23.333 -169.333 -70 -216c-50.667 -50.667 -130 -76 -238 -76zM328.001 194.001c32 0 58.333 10 79 30s31 45.667 31 77c0 30 -10.333 54.833 -31 74.5s-47 29.5 -79 29.5
c-32.667 0 -59.334 -10 -80.001 -30s-31 -45.667 -31 -77c0 -30 10.333 -54.833 31 -74.5s47.334 -29.5 80.001 -29.5z" />
    <glyph glyph-name="h" unicode="h" horiz-adv-x="634" 
d="M51 0v730h190v-263c44.667 57.333 98.667 86 162 86c57.333 0 102.333 -17.833 135 -53.5s49 -84.167 49 -145.5v-354h-190v293c0 28.667 -6.83301 51 -20.5 67s-32.167 24 -55.5 24c-24 0 -43.333 -8 -58 -24s-22 -38.333 -22 -67v-293h-190z" />
    <glyph glyph-name="i" unicode="i" horiz-adv-x="300" 
d="M55 0v541h190v-541h-190zM51 590v140h198v-140h-198z" />
    <glyph glyph-name="j" unicode="j" horiz-adv-x="302" 
d="M52 -163c-16 0 -41.999 2.33203 -77.999 6.99902v126c5.33301 -0.666992 13.666 -1 24.999 -1c19.333 0 33.5 4.83301 42.5 14.5s13.5 25.834 13.5 48.501v509h190v-517c0 -66 -16.167 -113.667 -48.5 -143s-80.5 -44 -144.5 -44zM51.001 589.999v140h198v-140h-198z" />
    <glyph glyph-name="k" unicode="k" horiz-adv-x="603" 
d="M51 0v730h190v-370l147 181h215l-188 -217l193 -324h-209l-109 184l-49 -57v-127h-190z" />
    <glyph glyph-name="l" unicode="l" horiz-adv-x="300" 
d="M55 0v730h190v-730h-190z" />
    <glyph glyph-name="m" unicode="m" horiz-adv-x="971" 
d="M51 0l-0.000976562 541.001h190v-74c44.667 57.333 98.334 86 161.001 86c73.333 0 125.333 -29.333 156 -88c51.333 58.667 111.666 88 180.999 88c58 0 103.333 -17.333 136 -52s49 -83.334 49 -146.001v-355h-190v294c0 28.667 -6.66699 50.834 -20 66.501
s-31.333 23.5 -54 23.5c-23.333 0 -42.166 -7.83301 -56.499 -23.5s-21.5 -37.834 -21.5 -66.501v-294h-190v294c0 28.667 -6.66699 50.834 -20 66.501s-31.333 23.5 -54 23.5c-23.333 0 -42 -7.83301 -56 -23.5s-21 -37.834 -21 -66.501v-294h-190z" />
    <glyph glyph-name="n" unicode="n" horiz-adv-x="634" 
d="M51 0v541h190v-76c45.333 58.667 99.333 88 162 88c57.333 0 102.333 -17.833 135 -53.5s49 -84.167 49 -145.5v-354h-190v293c0 28.667 -6.83301 51 -20.5 67s-32.167 24 -55.5 24c-24 0 -43.333 -8 -58 -24s-22 -38.333 -22 -67v-293h-190z" />
    <glyph glyph-name="o" unicode="o" horiz-adv-x="656" 
d="M327 -13c-85.333 0 -156.333 27.5 -213 82.5s-85 121.833 -85 200.5c0 78 28.5 144.667 85.5 200s128.5 83 214.5 83c85.333 0 156.333 -27.5 213 -82.5s85 -121.833 85 -200.5c0 -78 -28.5 -144.667 -85.5 -200s-128.5 -83 -214.5 -83zM329 148
c34 0 61.333 11.667 82 35s31 52.333 31 87c0 33.333 -11 62 -33 86s-49.333 36 -82 36c-34 0 -61.333 -11.667 -82 -35s-31 -52.333 -31 -87c0 -33.333 11 -62 33 -86s49.333 -36 82 -36z" />
    <glyph glyph-name="p" unicode="p" horiz-adv-x="676" 
d="M51 -160l-0.000976562 701.001h190v-72c46 56 100.667 84 164 84c66.667 0 123.334 -25.833 170.001 -77.5s70 -119.834 70 -204.501c0 -85.333 -23.167 -153.833 -69.5 -205.5s-102.833 -77.5 -169.5 -77.5c-65.333 0 -120.333 26 -165 78v-226h-190zM346.999 147.001
c31.333 0 57.666 11.666 78.999 34.999s32 53.333 32 90c0 35.333 -10.667 64.5 -32 87.5s-47.666 34.5 -78.999 34.5c-30.667 0 -56.667 -11.667 -78 -35s-32 -53 -32 -89c0 -35.333 10.667 -64.666 32 -87.999s47.333 -35 78 -35z" />
    <glyph glyph-name="q" unicode="q" horiz-adv-x="676" 
d="M435 -160l0.000976562 231.999c-46 -56 -101 -84 -165 -84c-66.667 0 -123.167 25.833 -169.5 77.5s-69.5 119.834 -69.5 204.501c0 85.333 23 153.833 69 205.5s102.333 77.5 169 77.5c65.333 0 120.666 -26 165.999 -78v66h190v-701h-190zM328.001 146.999
c30.667 0 56.665 11.666 77.998 34.999s32 53.333 32 90c0 35.333 -10.667 64.5 -32 87.5s-47.333 34.5 -78 34.5c-31.333 0 -57.666 -11.667 -78.999 -35s-32 -53 -32 -89c0 -35.333 10.833 -64.666 32.5 -87.999s47.834 -35 78.501 -35z" />
    <glyph glyph-name="r" unicode="r" horiz-adv-x="428" 
d="M51 0v541h190v-109c34.667 82 91.667 121.333 171 118v-200h-16c-103.333 0 -155 -60.667 -155 -182v-168h-190z" />
    <glyph glyph-name="s" unicode="s" horiz-adv-x="514" 
d="M266 -12c-96.667 0 -181.999 26.666 -255.999 79.999l71 115c62.667 -41.333 124.667 -62 186 -62c32 0 48 10.333 48 31c0 10 -6.5 18 -19.5 24s-35.5 13.333 -67.5 22c-63.333 17.333 -111.166 38.166 -143.499 62.499s-48.5 61.833 -48.5 112.5
c0 56 20.167 99.833 60.5 131.5s92.5 47.5 156.5 47.5c83.333 0 157.666 -21 222.999 -63l-65 -120c-60 33.333 -113.333 50 -160 50c-29.333 0 -44 -9.33301 -44 -28c0 -9.33301 6.33301 -17.166 19 -23.499s35.667 -14.5 69 -24.5c30.667 -8.66699 56 -17.167 76 -25.5
s39.667 -19.166 59 -32.499s33.666 -29.5 42.999 -48.5s14 -41.5 14 -67.5c0 -58 -20 -102.667 -60 -134s-93.667 -47 -161 -47z" />
    <glyph glyph-name="t" unicode="t" horiz-adv-x="431" 
d="M266 -11c-121.333 0 -182 59.667 -182 179v220h-64v153h64v137h190v-137h126v-153h-126v-183c0 -36 17.333 -54 52 -54c22.667 0 46.667 6 72 18v-149c-36.667 -20.667 -80.667 -31 -132 -31z" />
    <glyph glyph-name="u" unicode="u" horiz-adv-x="634" 
d="M231 -12c-57.333 0 -102.333 17.667 -135 53s-49 84 -49 146v354h190v-293c0 -28.667 7 -51 21 -67s32.667 -24 56 -24s42.333 8 57 24s22 38.333 22 67v293h190v-541h-190v74c-44.667 -57.333 -98.667 -86 -162 -86z" />
    <glyph glyph-name="v" unicode="v" horiz-adv-x="625" 
d="M226 -4l-216 545h200l104 -316l104 316h197l-216 -545h-173z" />
    <glyph glyph-name="w" unicode="w" horiz-adv-x="861" 
d="M177 -4l-165 545h186l71 -272l83 274h157l84 -276l73 274h183l-167 -545h-164l-88 281l-90 -281h-163z" />
    <glyph glyph-name="x" unicode="x" horiz-adv-x="589" 
d="M8 0l182 273l-179 268h205l80 -133l80 133h201l-178 -267l182 -274h-204l-84 139l-85 -139h-200z" />
    <glyph glyph-name="y" unicode="y" horiz-adv-x="626" 
d="M211 -163c-60 0 -118.001 15.667 -174.001 47l59 133c32 -19.333 59.667 -29 83 -29c18.667 0 33.334 7.33301 44.001 22l-212 531h199l108 -326l102 326h195l-198 -528c-24 -64 -51 -109.333 -81 -136s-71.667 -40 -125 -40z" />
    <glyph glyph-name="z" unicode="z" horiz-adv-x="563" 
d="M32 0v125l250 265h-241v151h493v-125l-251 -265h251v-151h-502z" />
    <glyph glyph-name="braceleft" unicode="{" horiz-adv-x="490" 
d="M429 -141c-97.333 12 -165.666 33.0039 -204.999 63.0039s-59 73.333 -59 130c0 4.66699 0.5 16.667 1.5 36s1.5 32 1.5 38c0 36.667 -9.5 62.167 -28.5 76.5s-48.833 21.5 -89.5 21.5h-16v126h16c40.667 0 70.5 7.16699 89.5 21.5s28.5 39.833 28.5 76.5
c0 6 -0.5 18.667 -1.5 38s-1.5 31.333 -1.5 36c0 56.667 19.667 100 59 130s107.666 51 204.999 63l29 -111c-51.333 -11.333 -84.833 -24.833 -100.5 -40.5s-23.5 -39.834 -23.5 -72.501c0 -5.33301 0.5 -16.5 1.5 -33.5s1.5 -29.167 1.5 -36.5
c0 -68.667 -37.333 -113.334 -112 -134.001c74.667 -20.667 112 -65.334 112 -134.001c0 -7.33301 -0.5 -19.5 -1.5 -36.5s-1.5 -28.167 -1.5 -33.5c0 -32.667 7.83301 -56.834 23.5 -72.501s49.167 -29.167 100.5 -40.5z" />
    <glyph glyph-name="bar" unicode="|" horiz-adv-x="355" 
d="M105 -128v926h145v-926h-145z" />
    <glyph glyph-name="braceright" unicode="}" horiz-adv-x="490" 
d="M61 -141l-29 110.996c51.333 11.333 84.833 24.833 100.5 40.5s23.5 39.834 23.5 72.501c0 5.33301 -0.5 16.5 -1.5 33.5s-1.5 29.167 -1.5 36.5c0 68.667 37.333 113.334 112 134.001c-74.667 20.667 -112 65.334 -112 134.001c0 7.33301 0.5 19.5 1.5 36.5
s1.5 28.167 1.5 33.5c0 32.667 -7.83301 56.834 -23.5 72.501s-49.167 29.167 -100.5 40.5l29 111c97.333 -12 165.666 -33 204.999 -63s59 -73.333 59 -130c0 -4.66699 -0.5 -16.667 -1.5 -36s-1.5 -32 -1.5 -38c0 -36.667 9.5 -62.167 28.5 -76.5s48.833 -21.5 89.5 -21.5
h16v-126h-16c-40.667 0 -70.5 -7.16699 -89.5 -21.5s-28.5 -39.833 -28.5 -76.5c0 -6 0.5 -18.667 1.5 -38s1.5 -31.333 1.5 -36c0 -56.667 -19.667 -100 -59 -130s-107.666 -51 -204.999 -63z" />
    <glyph glyph-name="asciitilde" unicode="~" horiz-adv-x="505" 
d="M133 220l-92.0029 25c11.333 51.333 26.5 89 45.5 113s45.167 36 78.5 36c22 0 51.333 -6.5 88 -19.5s59.334 -19.5 68.001 -19.5c13.333 0 23.333 3.5 30 10.5s13.667 18.833 21 35.5l92 -25c-11.333 -51.333 -26.5 -89 -45.5 -113s-45.167 -36 -78.5 -36
c-22 0 -51.5 6.5 -88.5 19.5s-59.833 19.5 -68.5 19.5c-13.333 0 -23.166 -3.33301 -29.499 -10s-13.166 -18.667 -20.499 -36z" />
    <glyph glyph-name="uni00A0" unicode="&#xa0;" horiz-adv-x="277" 
 />
    <glyph glyph-name="exclamdown" unicode="&#xa1;" horiz-adv-x="324" 
d="M54 0v85l58 387h100l58 -387v-85h-216zM63 530v170h198v-170h-198z" />
    <glyph glyph-name="cent" unicode="&#xa2;" horiz-adv-x="575" 
d="M202 -6l17.002 98c-56 19.333 -101.167 52.833 -135.5 100.5s-51.5 101.834 -51.5 162.501c0 78.667 26.333 144.667 79 198s121 81 205 83l12 70h115l-15 -87c54 -20 96 -52.333 126 -97l-116 -89c-14.667 18 -30.334 31.333 -47.001 40l-46 -252
c35.333 4.66699 67 23.667 95 57l115 -84c-52.667 -76.667 -127.334 -116.334 -224.001 -119.001l-14 -81h-115zM253.002 238l45 253.002c-30 -4.66699 -54.333 -19.834 -73 -45.501s-28 -55.834 -28 -90.501c0 -55.333 18.667 -94.333 56 -117z" />
    <glyph glyph-name="sterling" unicode="&#xa3;" horiz-adv-x="639" 
d="M44 0l-0.000976562 115l75 29v119h-75v136h75v51c0 82.667 23 147 69 193s109.667 69 191 69c94.667 0 172.334 -33.667 233.001 -101l-118 -129c-32 38 -66 57 -102 57c-24.667 0 -44.167 -8 -58.5 -24s-21.5 -37.667 -21.5 -65v-51h216v-136h-216v-110h293v-153h-561z
" />
    <glyph glyph-name="currency" unicode="&#xa4;" horiz-adv-x="682" 
d="M421 -14c-78.667 0 -144.498 21.499 -197.498 64.499s-88.167 100.5 -105.5 172.5h-81v104h68c-0.666992 4.66699 -1 12.334 -1 23.001c0 12 0.333008 21 1 27h-68v104h84c18.667 68.667 54.167 124.667 106.5 168s117.166 65 194.499 65
c101.333 0 181.333 -37.667 240 -113l-123 -115c-32.667 41.333 -71.334 62 -116.001 62c-50.667 0 -87 -23.333 -109 -70h156v-101h-178c-0.666992 -5.33301 -1 -14.333 -1 -27c0 -10 0.333008 -17.667 1 -23h178v-101h-158c23.333 -49.333 61.666 -74 114.999 -74
c42.667 0 82 22 118 66l120 -113c-61.333 -79.333 -142.666 -119 -243.999 -119z" />
    <glyph glyph-name="yen" unicode="&#xa5;" horiz-adv-x="708" 
d="M258 0v93h-184v120h184v50h-184v120h138l-208 317h220l132 -230l132 230h216l-209 -317h139v-120h-184v-50h184v-120h-184v-93h-192z" />
    <glyph glyph-name="brokenbar" unicode="&#xa6;" horiz-adv-x="222" 
d="M33 -89v250h157v-250h-157zM33 411v250h157v-250h-157z" />
    <glyph glyph-name="section" unicode="&#xa7;" horiz-adv-x="626" 
d="M309 -13c-48 0 -92.833 7.33496 -134.5 22.002s-75.834 33.667 -102.501 57l77 109c54.667 -39.333 109.334 -59 164.001 -59c36 0 54 10.667 54 32c0 16.667 -32.333 32 -97 46c-74 16 -130.5 34.667 -169.5 56s-58.5 51.666 -58.5 90.999c0 51.333 30.333 88 91 110
c-31.333 24 -47 57.667 -47 101c0 46.667 20 85.167 60 115.5s97 45.5 171 45.5c48 0 92.833 -7.33301 134.5 -22s75.834 -33.667 102.501 -57l-77 -109c-54.667 39.333 -109.334 59 -164.001 59c-36 0 -54 -10.667 -54 -32c0 -9.33301 7.16699 -17.333 21.5 -24
s39.5 -14 75.5 -22s65.833 -15.5 89.5 -22.5s47 -16.167 70 -27.5s40.167 -25 51.5 -41s17 -34.667 17 -56c0 -51.333 -30.333 -88 -91 -110c31.333 -24 47 -57.333 47 -100c0 -46.667 -20 -85.334 -60 -116.001s-97 -46 -171 -46zM387 297.002c34 0 51 12.333 51 37
c0 18 -33.667 35 -101 51c-47.333 12 -80.333 18 -99 18c-34 0 -51 -12.333 -51 -37c0 -18 33.667 -35 101 -51c48 -12 81 -18 99 -18z" />
    <glyph glyph-name="dieresis" unicode="&#xa8;" 
d="M58 587v143h165v-143h-165zM277 587v143h165v-143h-165z" />
    <glyph glyph-name="copyright" unicode="&#xa9;" horiz-adv-x="830" 
d="M414 -14c-100.667 0 -186 35.667 -256 107s-105 157 -105 257c0 99.333 35.333 184.833 106 256.5s156.334 107.5 257.001 107.5s186 -35.667 256 -107s105 -157 105 -257c0 -99.333 -35.333 -184.833 -106 -256.5s-156.334 -107.5 -257.001 -107.5zM414 26
c90.667 0 166.834 31.833 228.501 95.5s92.5 140.5 92.5 230.5c0 89.333 -30.667 165.333 -92 228s-137 94 -227 94c-90.667 0 -166.834 -31.833 -228.501 -95.5s-92.5 -140.5 -92.5 -230.5c0 -89.333 30.667 -165.333 92 -228s137 -94 227 -94zM420 156
c-58 0 -105.999 19.001 -143.999 57.001s-57 85.333 -57 142c0 55.333 19.167 102.333 57.5 141s87.166 58 146.499 58c68.667 0 122.667 -26.333 162 -79l-81 -64c-24.667 30 -52.667 45 -84 45c-26 0 -47.5 -9.83301 -64.5 -29.5s-25.5 -43.834 -25.5 -72.501
s8.5 -52.5 25.5 -71.5s38.5 -28.5 64.5 -28.5c31.333 0 60 15.333 86 46l82 -58c-42.667 -57.333 -98.667 -86 -168 -86z" />
    <glyph glyph-name="ordfeminine" unicode="&#xaa;" horiz-adv-x="390" 
d="M41 270v77h299v-77h-299zM144 397c-29.333 0 -53.334 8.16895 -72.001 24.502s-28 39.166 -28 68.499c0 30 10.5 53 31.5 69s49.5 24 85.5 24c26.667 0 50.334 -3.66699 71.001 -11v4c0 32.667 -20 49 -60 49c-24 0 -51.333 -5.66699 -82 -17l-21 74
c37.333 15.333 77.333 23 120 23c51.333 0 89.333 -12.333 114 -37c21.333 -20.667 32 -52.334 32 -95.001v-170h-104v32c-22 -25.333 -51 -38 -87 -38zM180.999 463.002c15.333 0 27.833 4.5 37.5 13.5s14.5 20.833 14.5 35.5v13c-14.667 5.33301 -28.334 8 -41.001 8
c-14.667 0 -26.167 -3.5 -34.5 -10.5s-12.5 -16.167 -12.5 -27.5c0 -10 3.33301 -17.833 10 -23.5s15.334 -8.5 26.001 -8.5z" />
    <glyph glyph-name="guillemotleft" unicode="&#xab;" horiz-adv-x="631" 
d="M190 30l-160 214v48l160 214l137 -67l-130 -171l130 -170zM465 30l-176 234v8l176 234l136 -67l-130 -171l130 -170z" />
    <glyph glyph-name="logicalnot" unicode="&#xac;" horiz-adv-x="640" 
d="M391 231v172h-317v167h491v-339h-174z" />
    <glyph glyph-name="uni00AD" unicode="&#xad;" horiz-adv-x="408" 
d="M40 229v167h328v-167h-328z" />
    <glyph glyph-name="registered" unicode="&#xae;" horiz-adv-x="830" 
d="M414 -14c-100.667 0 -186 35.667 -256 107s-105 157 -105 257c0 99.333 35.333 184.833 106 256.5s156.334 107.5 257.001 107.5s186 -35.667 256 -107s105 -157 105 -257c0 -99.333 -35.333 -184.833 -106 -256.5s-156.334 -107.5 -257.001 -107.5zM414 26
c90.667 0 166.834 31.833 228.501 95.5s92.5 140.5 92.5 230.5c0 89.333 -30.667 165.333 -92 228s-137 94 -227 94c-90.667 0 -166.834 -31.833 -228.501 -95.5s-92.5 -140.5 -92.5 -230.5c0 -89.333 30.667 -165.333 92 -228s137 -94 227 -94zM256 168v385h179
c58 0 101.333 -14.333 130 -43c22 -22 33 -52 33 -90c0 -56.667 -26.333 -96 -79 -118l92 -134h-123l-80 117h-45v-117h-107zM363 368h70c38.667 0 58 15.667 58 47c0 30.667 -19.667 46 -59 46h-69v-93z" />
    <glyph glyph-name="macron" unicode="&#xaf;" 
d="M62 592v116h376v-116h-376z" />
    <glyph glyph-name="degree" unicode="&#xb0;" horiz-adv-x="472" 
d="M236 352c-49.333 0 -92 17.332 -128 51.999s-54 76.667 -54 126c0 48 18.167 89.667 54.5 125s78.833 53 127.5 53s91.167 -17.667 127.5 -53s54.5 -77.666 54.5 -126.999c0 -48 -18 -89.333 -54 -124s-78.667 -52 -128 -52zM236 443.999c24 0 43.998 8.33301 59.998 25
s24 37 24 61c0 23.333 -8.16699 43.333 -24.5 60s-36.166 25 -59.499 25s-43.166 -8.33301 -59.499 -25s-24.5 -37.334 -24.5 -62.001c0 -23.333 8 -43.166 24 -59.499s36 -24.5 60 -24.5z" />
    <glyph glyph-name="plusminus" unicode="&#xb1;" horiz-adv-x="640" 
d="M76 -16v157h491v-157h-491zM233 206v132h-169v168h169v132h174v-132h169v-168h-169v-132h-174z" />
    <glyph glyph-name="twosuperior" unicode="&#xb2;" 
d="M0 0v700h500v-700h-500zM81 49h339l-170 255zM49 96l171 254l-171 254v-508zM450 96v508l-171 -254zM250 395l170 255h-339z" />
    <glyph glyph-name="threesuperior" unicode="&#xb3;" 
d="M0 0v700h500v-700h-500zM81 49h339l-170 255zM49 96l171 254l-171 254v-508zM450 96v508l-171 -254zM250 395l170 255h-339z" />
    <glyph glyph-name="acute" unicode="&#xb4;" 
d="M131 587l104 185l177 -57l-147 -128h-134z" />
    <glyph glyph-name="mu" unicode="&#xb5;" horiz-adv-x="638" 
d="M51 -160l0.000976562 701h190v-293c0 -28.667 7 -51 21 -67s32.667 -24 56 -24s42.333 8 57 24s22 38.333 22 67v293h190v-541h-190v74c-38.667 -50.667 -83 -76 -133 -76c-4.66699 0 -12.334 0.666992 -23.001 2v-160h-190z" />
    <glyph glyph-name="paragraph" unicode="&#xb6;" horiz-adv-x="596" 
d="M339 0v220h-21c-88.667 0 -160.167 20.833 -214.5 62.5s-81.5 100.5 -81.5 176.5c0 76.667 26.333 136 79 178s124 63 214 63h219v-700h-195z" />
    <glyph glyph-name="periodcentered" unicode="&#xb7;" horiz-adv-x="284" 
d="M43 215v195h198v-195h-198z" />
    <glyph glyph-name="cedilla" unicode="&#xb8;" 
d="M260 -173l-151 64l92 124h125z" />
    <glyph glyph-name="onesuperior" unicode="&#xb9;" 
d="M0 0v700h500v-700h-500zM81 49h339l-170 255zM49 96l171 254l-171 254v-508zM450 96v508l-171 -254zM250 395l170 255h-339z" />
    <glyph glyph-name="ordmasculine" unicode="&#xba;" horiz-adv-x="390" 
d="M51 270v77h288v-77h-288zM194 395c-46 0 -84.333 14.833 -115 44.5s-46 66.5 -46 110.5c0 43.333 15.5 80 46.5 110s69.833 45 116.5 45c46 0 84.333 -14.833 115 -44.5s46 -66.5 46 -110.5c0 -43.333 -15.5 -80 -46.5 -110s-69.833 -45 -116.5 -45zM196 484
c18 0 32.333 6.16895 43 18.502s16 28.166 16 47.499c0 18.667 -5.66699 34.5 -17 47.5s-26 19.5 -44 19.5s-32.333 -6.33301 -43 -19s-16 -28.667 -16 -48c0 -18.667 5.66699 -34.334 17 -47.001s26 -19 44 -19z" />
    <glyph glyph-name="guillemotright" unicode="&#xbb;" horiz-adv-x="631" 
d="M167 30l-137 67l130 171l-130 170l137 68l175 -234v-8zM441 30l-136 67l130 171l-130 170l136 68l160 -214v-48z" />
    <glyph glyph-name="onequarter" unicode="&#xbc;" 
d="M0 0v700h500v-700h-500zM81 49h339l-170 255zM49 96l171 254l-171 254v-508zM450 96v508l-171 -254zM250 395l170 255h-339z" />
    <glyph glyph-name="onehalf" unicode="&#xbd;" 
d="M0 0v700h500v-700h-500zM81 49h339l-170 255zM49 96l171 254l-171 254v-508zM450 96v508l-171 -254zM250 395l170 255h-339z" />
    <glyph glyph-name="threequarters" unicode="&#xbe;" 
d="M0 0v700h500v-700h-500zM81 49h339l-170 255zM49 96l171 254l-171 254v-508zM450 96v508l-171 -254zM250 395l170 255h-339z" />
    <glyph glyph-name="questiondown" unicode="&#xbf;" horiz-adv-x="540" 
d="M271 -11c-74 0 -133.999 19 -179.999 57s-69 89.667 -69 155c0 59.333 17 105 51 137s82 55.333 144 70l11 64h121l26 -167l-9 -9c-56 -4.66699 -96.167 -13.667 -120.5 -27s-36.5 -31.333 -36.5 -54c0 -17.333 6.66699 -30.833 20 -40.5s32 -14.5 56 -14.5
c47.333 0 95.666 22 144.999 66l101 -132c-70 -70 -156.667 -105 -260 -105zM193.001 530v170h198v-170h-198z" />
    <glyph glyph-name="Agrave" unicode="&#xc0;" horiz-adv-x="795" 
d="M6 0l298 705h187l298 -705h-208l-51 125h-270l-50 -125h-204zM317 276h157l-78 199zM343 747l-147 128l177 57l104 -185h-134z" />
    <glyph glyph-name="Aacute" unicode="&#xc1;" horiz-adv-x="795" 
d="M6 0l298 705h187l298 -705h-208l-51 125h-270l-50 -125h-204zM317 276h157l-78 199zM319 747l104 185l177 -57l-147 -128h-134z" />
    <glyph glyph-name="Acircumflex" unicode="&#xc2;" horiz-adv-x="795" 
d="M6 0l298 705h187l298 -705h-208l-51 125h-270l-50 -125h-204zM317 276h157l-78 199zM193 747l128 165h154l128 -165h-122l-84 61l-84 -61h-120z" />
    <glyph glyph-name="Atilde" unicode="&#xc3;" horiz-adv-x="795" 
d="M6 0l298 705h187l298 -705h-208l-51 125h-270l-50 -125h-204zM317 276h157l-78 199zM278 740l-91 25c10.667 51.333 25.667 89 45 113s45.666 36 78.999 36c22.667 0 52.334 -6.5 89.001 -19.5s59 -19.5 67 -19.5c13.333 0 23.333 3.5 30 10.5s13.667 18.833 21 35.5
l91 -25c-10.667 -51.333 -25.667 -89 -45 -113s-45.666 -36 -78.999 -36c-22 0 -51.333 6.5 -88 19.5s-59.334 19.5 -68.001 19.5c-13.333 0 -23.333 -3.5 -30 -10.5s-13.667 -18.833 -21 -35.5z" />
    <glyph glyph-name="Adieresis" unicode="&#xc4;" horiz-adv-x="795" 
d="M6 0l298 705h187l298 -705h-208l-51 125h-270l-50 -125h-204zM317 276h157l-78 199zM206 747v143h165v-143h-165zM425 747v143h165v-143h-165z" />
    <glyph glyph-name="Aring" unicode="&#xc5;" horiz-adv-x="795" 
d="M6 0l290.001 687.001c-20.667 22.667 -31 49 -31 79c0 34 13.167 63.5 39.5 88.5s57.5 37.5 93.5 37.5c35.333 0 66.166 -12.5 92.499 -37.5s39.5 -55.167 39.5 -90.5c0 -28.667 -10.333 -54.334 -31 -77.001l290 -687h-208l-51 125h-270l-50 -125h-204zM398.001 698.001
c18 0 33.5 6.66699 46.5 20s19.5 29.333 19.5 48c0 17.333 -6.5 32.5 -19.5 45.5s-28.5 19.5 -46.5 19.5c-18.667 0 -34.5 -6.5 -47.5 -19.5s-19.5 -28.833 -19.5 -47.5c0 -18 6.5 -33.5 19.5 -46.5s28.833 -19.5 47.5 -19.5zM317.001 276.001h157l-78 199z" />
    <glyph glyph-name="AE" unicode="&#xc6;" horiz-adv-x="1063" 
d="M-5 0l370 700h655v-165h-349v-106h314v-153h-314v-111h354v-165h-543v125h-226l-65 -125h-196zM334 276h148v265h-12z" />
    <glyph glyph-name="Ccedilla" unicode="&#xc7;" horiz-adv-x="730" 
d="M381 -173l-150.999 64l78 106c-79.333 20 -144.166 62 -194.499 126s-75.5 139.667 -75.5 227c0 102.667 35.167 189 105.5 259s158.166 105 263.499 105c128 0 227 -48.667 297 -146l-146 -113c-44 54.667 -95 82 -153 82c-48.667 0 -88.667 -18 -120 -54
s-47 -80.333 -47 -133c0 -53.333 15.667 -97.833 47 -133.5s71.333 -53.5 120 -53.5c34 0 63 7.16699 87 21.5s47.667 35.5 71 63.5l146 -104c-68.667 -94.667 -159.334 -146.667 -272.001 -156z" />
    <glyph glyph-name="Egrave" unicode="&#xc8;" horiz-adv-x="667" 
d="M62 0v700h563v-165h-371v-106h336v-153h-336v-111h376v-165h-568zM313 747l-147 128l177 57l104 -185h-134z" />
    <glyph glyph-name="Eacute" unicode="&#xc9;" horiz-adv-x="667" 
d="M62 0v700h563v-165h-371v-106h336v-153h-336v-111h376v-165h-568zM252 747l104 185l177 -57l-147 -128h-134z" />
    <glyph glyph-name="Ecircumflex" unicode="&#xca;" horiz-adv-x="667" 
d="M62 0v700h563v-165h-371v-106h336v-153h-336v-111h376v-165h-568zM140 747l128 165h154l128 -165h-122l-84 61l-84 -61h-120z" />
    <glyph glyph-name="Edieresis" unicode="&#xcb;" horiz-adv-x="667" 
d="M62 0v700h563v-165h-371v-106h336v-153h-336v-111h376v-165h-568zM153 747v143h165v-143h-165zM372 747v143h165v-143h-165z" />
    <glyph glyph-name="Igrave" unicode="&#xcc;" horiz-adv-x="327" 
d="M66 0v700h195v-700h-195zM106 747l-147 128l177 57l104 -185h-134z" />
    <glyph glyph-name="Iacute" unicode="&#xcd;" horiz-adv-x="327" 
d="M66 0v700h195v-700h-195zM87 747l104 185l177 -57l-147 -128h-134z" />
    <glyph glyph-name="Icircumflex" unicode="&#xce;" horiz-adv-x="327" 
d="M66 0v700h195v-700h-195zM-42 747l128 165h154l128 -165h-122l-84 61l-84 -61h-120z" />
    <glyph glyph-name="Idieresis" unicode="&#xcf;" horiz-adv-x="327" 
d="M66 0v700h195v-700h-195zM-29 747v143h165v-143h-165zM190 747v143h165v-143h-165z" />
    <glyph glyph-name="Eth" unicode="&#xd0;" horiz-adv-x="815" 
d="M111 0l-0.000976562 276h-80v153h80v271h270c122.667 0 219.167 -32 289.5 -96s105.5 -148 105.5 -252c0 -103.333 -35.667 -187.833 -107 -253.5s-168.666 -98.5 -291.999 -98.5h-266zM298.999 167h85c60 0 107.167 16.167 141.5 48.5s51.5 77.5 51.5 135.5
c0 56.667 -17.167 101.167 -51.5 133.5s-81.5 48.5 -141.5 48.5h-85v-104h119v-153h-119v-109z" />
    <glyph glyph-name="Ntilde" unicode="&#xd1;" horiz-adv-x="785" 
d="M62 0v700h181l288 -370v370h192v-700h-170l-299 384v-384h-192zM273 740l-91 25c10.667 51.333 25.667 89 45 113s45.666 36 78.999 36c22.667 0 52.334 -6.5 89.001 -19.5s59 -19.5 67 -19.5c13.333 0 23.333 3.5 30 10.5s13.667 18.833 21 35.5l91 -25
c-10.667 -51.333 -25.667 -89 -45 -113s-45.666 -36 -78.999 -36c-22.667 0 -52.334 6.5 -89.001 19.5s-59 19.5 -67 19.5c-13.333 0 -23.333 -3.5 -30 -10.5s-13.667 -18.833 -21 -35.5z" />
    <glyph glyph-name="Ograve" unicode="&#xd2;" horiz-adv-x="831" 
d="M414 -14c-107.333 0 -196.833 35.167 -268.5 105.5s-107.5 156.5 -107.5 258.5c0 101.333 36.167 187.333 108.5 258s162.166 106 269.499 106s196.833 -35.167 268.5 -105.5s107.5 -156.5 107.5 -258.5c0 -101.333 -36.167 -187.333 -108.5 -258
s-162.166 -106 -269.499 -106zM416 161c52.667 0 95.5 18.333 128.5 55s49.5 81.334 49.5 134.001c0 52 -17 96.5 -51 133.5s-77 55.5 -129 55.5s-94.5 -18.333 -127.5 -55s-49.5 -81.334 -49.5 -134.001c0 -52 16.833 -96.5 50.5 -133.5s76.5 -55.5 128.5 -55.5zM351 747
l-147 128l177 57l104 -185h-134z" />
    <glyph glyph-name="Oacute" unicode="&#xd3;" horiz-adv-x="831" 
d="M414 -14c-107.333 0 -196.833 35.167 -268.5 105.5s-107.5 156.5 -107.5 258.5c0 101.333 36.167 187.333 108.5 258s162.166 106 269.499 106s196.833 -35.167 268.5 -105.5s107.5 -156.5 107.5 -258.5c0 -101.333 -36.167 -187.333 -108.5 -258
s-162.166 -106 -269.499 -106zM416 161c52.667 0 95.5 18.333 128.5 55s49.5 81.334 49.5 134.001c0 52 -17 96.5 -51 133.5s-77 55.5 -129 55.5s-94.5 -18.333 -127.5 -55s-49.5 -81.334 -49.5 -134.001c0 -52 16.833 -96.5 50.5 -133.5s76.5 -55.5 128.5 -55.5zM347 747
l104 185l177 -57l-147 -128h-134z" />
    <glyph glyph-name="Ocircumflex" unicode="&#xd4;" horiz-adv-x="831" 
d="M414 -14c-107.333 0 -196.833 35.167 -268.5 105.5s-107.5 156.5 -107.5 258.5c0 101.333 36.167 187.333 108.5 258s162.166 106 269.499 106s196.833 -35.167 268.5 -105.5s107.5 -156.5 107.5 -258.5c0 -101.333 -36.167 -187.333 -108.5 -258
s-162.166 -106 -269.499 -106zM416 161c52.667 0 95.5 18.333 128.5 55s49.5 81.334 49.5 134.001c0 52 -17 96.5 -51 133.5s-77 55.5 -129 55.5s-94.5 -18.333 -127.5 -55s-49.5 -81.334 -49.5 -134.001c0 -52 16.833 -96.5 50.5 -133.5s76.5 -55.5 128.5 -55.5zM211 745
l128 165h154l128 -165h-122l-84 61l-84 -61h-120z" />
    <glyph glyph-name="Otilde" unicode="&#xd5;" horiz-adv-x="831" 
d="M414 -14c-107.333 0 -196.833 35.167 -268.5 105.5s-107.5 156.5 -107.5 258.5c0 101.333 36.167 187.333 108.5 258s162.166 106 269.499 106s196.833 -35.167 268.5 -105.5s107.5 -156.5 107.5 -258.5c0 -101.333 -36.167 -187.333 -108.5 -258
s-162.166 -106 -269.499 -106zM416 161c52.667 0 95.5 18.333 128.5 55s49.5 81.334 49.5 134.001c0 52 -17 96.5 -51 133.5s-77 55.5 -129 55.5s-94.5 -18.333 -127.5 -55s-49.5 -81.334 -49.5 -134.001c0 -52 16.833 -96.5 50.5 -133.5s76.5 -55.5 128.5 -55.5zM296 740
l-91 25c10.667 51.333 25.667 89 45 113s45.666 36 78.999 36c22 0 51.333 -6.5 88 -19.5s59.334 -19.5 68.001 -19.5c13.333 0 23.333 3.5 30 10.5s13.667 18.833 21 35.5l91 -25c-10.667 -51.333 -25.667 -89 -45 -113s-45.666 -36 -78.999 -36
c-22 0 -51.333 6.5 -88 19.5s-59.334 19.5 -68.001 19.5c-13.333 0 -23.333 -3.5 -30 -10.5s-13.667 -18.833 -21 -35.5z" />
    <glyph glyph-name="Odieresis" unicode="&#xd6;" horiz-adv-x="831" 
d="M414 -14c-107.333 0 -196.833 35.167 -268.5 105.5s-107.5 156.5 -107.5 258.5c0 101.333 36.167 187.333 108.5 258s162.166 106 269.499 106s196.833 -35.167 268.5 -105.5s107.5 -156.5 107.5 -258.5c0 -101.333 -36.167 -187.333 -108.5 -258
s-162.166 -106 -269.499 -106zM416 161c52.667 0 95.5 18.333 128.5 55s49.5 81.334 49.5 134.001c0 52 -17 96.5 -51 133.5s-77 55.5 -129 55.5s-94.5 -18.333 -127.5 -55s-49.5 -81.334 -49.5 -134.001c0 -52 16.833 -96.5 50.5 -133.5s76.5 -55.5 128.5 -55.5zM224 747
v143h165v-143h-165zM443 747v143h165v-143h-165z" />
    <glyph glyph-name="multiply" unicode="&#xd7;" horiz-adv-x="640" 
d="M161 6l-108 109l158 158l-158 158l108 109l158 -159l159 159l108 -109l-158 -158l158 -158l-108 -109l-159 158z" />
    <glyph glyph-name="Oslash" unicode="&#xd8;" horiz-adv-x="831" 
d="M414 -14c-72.667 0 -138.667 17.667 -198 53l-39 -44h-147l100 112c-61.333 68 -92 149 -92 243c0 101.333 36.167 187.333 108.5 258s162.166 106 269.499 106c74 0 140 -17.667 198 -53l39 44h147l-99 -113c60.667 -67.333 91 -148 91 -242
c0 -101.333 -36.167 -187.333 -108.5 -258s-162.166 -106 -269.499 -106zM416 157c53.333 0 96.833 18.667 130.5 56s50.5 83 50.5 137c0 36 -8 68.333 -24 97l-238 -271c25.333 -12.667 52.333 -19 81 -19zM258 253l237.001 271c-24 12.667 -51 19 -81 19
c-52.667 0 -95.834 -18.667 -129.501 -56s-50.5 -83 -50.5 -137c0 -36 8 -68.333 24 -97z" />
    <glyph glyph-name="Ugrave" unicode="&#xd9;" horiz-adv-x="758" 
d="M377 -13c-102.667 0 -182.333 26.667 -239 80s-85 133.333 -85 240v393h197v-389c0 -49.333 11.5 -86.5 34.5 -111.5s54.5 -37.5 94.5 -37.5s71.5 12 94.5 36s34.5 60 34.5 108v394h197v-388c0 -109.333 -28.833 -190.833 -86.5 -244.5s-138.167 -80.5 -241.5 -80.5z
M323.001 742l-147 128l177 57l104 -185h-134z" />
    <glyph glyph-name="Uacute" unicode="&#xda;" horiz-adv-x="758" 
d="M377 -13c-102.667 0 -182.333 26.667 -239 80s-85 133.333 -85 240v393h197v-389c0 -49.333 11.5 -86.5 34.5 -111.5s54.5 -37.5 94.5 -37.5s71.5 12 94.5 36s34.5 60 34.5 108v394h197v-388c0 -109.333 -28.833 -190.833 -86.5 -244.5s-138.167 -80.5 -241.5 -80.5z
M301.001 742l104 185l177 -57l-147 -128h-134z" />
    <glyph glyph-name="Ucircumflex" unicode="&#xdb;" horiz-adv-x="758" 
d="M377 -13c-102.667 0 -182.333 26.667 -239 80s-85 133.333 -85 240v393h197v-389c0 -49.333 11.5 -86.5 34.5 -111.5s54.5 -37.5 94.5 -37.5s71.5 12 94.5 36s34.5 60 34.5 108v394h197v-388c0 -109.333 -28.833 -190.833 -86.5 -244.5s-138.167 -80.5 -241.5 -80.5z
M174.001 747l128 165h154l128 -165h-122l-84 61l-84 -61h-120z" />
    <glyph glyph-name="Udieresis" unicode="&#xdc;" horiz-adv-x="758" 
d="M377 -13c-102.667 0 -182.333 26.667 -239 80s-85 133.333 -85 240v393h197v-389c0 -49.333 11.5 -86.5 34.5 -111.5s54.5 -37.5 94.5 -37.5s71.5 12 94.5 36s34.5 60 34.5 108v394h197v-388c0 -109.333 -28.833 -190.833 -86.5 -244.5s-138.167 -80.5 -241.5 -80.5z
M187.001 747v143h165v-143h-165zM406.001 747v143h165v-143h-165z" />
    <glyph glyph-name="Yacute" unicode="&#xdd;" horiz-adv-x="723" 
d="M264 0v262l-266 438h221l144 -255l145 255h217l-266 -435v-265h-195zM281 745l104 185l177 -57l-147 -128h-134z" />
    <glyph glyph-name="Thorn" unicode="&#xde;" horiz-adv-x="682" 
d="M62 0l0.000976562 700h194v-100h106c89.333 0 160.166 -21.5 212.499 -64.5s78.5 -103.167 78.5 -180.5c0 -80.667 -27.667 -142.5 -83 -185.5s-128 -64.5 -218 -64.5h-96v-105h-194zM256.001 260l91.999 -0.000976562c34.667 0 61.834 8.33301 81.501 25
s29.5 39.334 29.5 68.001c0 29.333 -9.83301 51.833 -29.5 67.5s-47.167 23.5 -82.5 23.5h-91v-184z" />
    <glyph glyph-name="germandbls" unicode="&#xdf;" horiz-adv-x="635" 
d="M338 -4c-13.333 0 -23.666 0.333008 -30.999 1v136c36 2 63.833 10.167 83.5 24.5s29.5 33.833 29.5 58.5c0 23.333 -10.167 41.833 -30.5 55.5s-47.833 22.167 -82.5 25.5v101c54.667 27.333 82 63.666 82 108.999c0 22 -6.5 39.667 -19.5 53s-29.5 20 -49.5 20
c-24 0 -43.333 -8.5 -58 -25.5s-22 -40.833 -22 -71.5v-483h-189v479c0 79.333 23.667 142.5 71 189.5s114.333 70.5 201 70.5c76 0 136.667 -20 182 -60s68 -90.333 68 -151c0 -74 -34.667 -128.667 -104 -164c39.333 -12.667 72.333 -33.167 99 -61.5
s40 -65.166 40 -110.499c0 -60.667 -24.833 -108.5 -74.5 -143.5s-114.834 -52.5 -195.501 -52.5z" />
    <glyph glyph-name="agrave" unicode="&#xe0;" horiz-adv-x="599" 
d="M206 -12c-53.333 0 -96.998 14.833 -130.998 44.5s-51 71.167 -51 124.5c0 54.667 19 96.667 57 126s89.667 44 155 44c47.333 0 90.666 -7 129.999 -21v9c0 58.667 -36 88 -108 88c-48.667 0 -98.334 -10 -149.001 -30l-39 134c68 28 141 42 219 42
c93.333 0 162 -22 206 -66c38.667 -38 58 -95.333 58 -172v-311h-188v56c-40.667 -45.333 -93.667 -68 -159 -68zM274.002 107c28 0 50.666 8.16602 67.999 24.499s26 37.833 26 64.5v25c-22 9.33301 -46.667 14 -74 14s-48.666 -6.16699 -63.999 -18.5
s-23 -29.166 -23 -50.499c0 -18 6.16699 -32.333 18.5 -43s28.5 -16 48.5 -16zM252.001 588.999l-147 128l177 57l104 -185h-134z" />
    <glyph glyph-name="aacute" unicode="&#xe1;" horiz-adv-x="599" 
d="M206 -12c-53.333 0 -96.998 14.833 -130.998 44.5s-51 71.167 -51 124.5c0 54.667 19 96.667 57 126s89.667 44 155 44c47.333 0 90.666 -7 129.999 -21v9c0 58.667 -36 88 -108 88c-48.667 0 -98.334 -10 -149.001 -30l-39 134c68 28 141 42 219 42
c93.333 0 162 -22 206 -66c38.667 -38 58 -95.333 58 -172v-311h-188v56c-40.667 -45.333 -93.667 -68 -159 -68zM274.002 107c28 0 50.666 8.16602 67.999 24.499s26 37.833 26 64.5v25c-22 9.33301 -46.667 14 -74 14s-48.666 -6.16699 -63.999 -18.5
s-23 -29.166 -23 -50.499c0 -18 6.16699 -32.333 18.5 -43s28.5 -16 48.5 -16zM216.001 588.999l104 185l177 -57l-147 -128h-134z" />
    <glyph glyph-name="acircumflex" unicode="&#xe2;" horiz-adv-x="599" 
d="M206 -12c-53.333 0 -96.998 14.833 -130.998 44.5s-51 71.167 -51 124.5c0 54.667 19 96.667 57 126s89.667 44 155 44c47.333 0 90.666 -7 129.999 -21v9c0 58.667 -36 88 -108 88c-48.667 0 -98.334 -10 -149.001 -30l-39 134c68 28 141 42 219 42
c93.333 0 162 -22 206 -66c38.667 -38 58 -95.333 58 -172v-311h-188v56c-40.667 -45.333 -93.667 -68 -159 -68zM274.002 107c28 0 50.666 8.16602 67.999 24.499s26 37.833 26 64.5v25c-22 9.33301 -46.667 14 -74 14s-48.666 -6.16699 -63.999 -18.5
s-23 -29.166 -23 -50.499c0 -18 6.16699 -32.333 18.5 -43s28.5 -16 48.5 -16zM92.001 586.999l128 165h154l128 -165h-122l-84 61l-84 -61h-120z" />
    <glyph glyph-name="atilde" unicode="&#xe3;" horiz-adv-x="599" 
d="M206 -12c-53.333 0 -96.998 14.833 -130.998 44.5s-51 71.167 -51 124.5c0 54.667 19 96.667 57 126s89.667 44 155 44c47.333 0 90.666 -7 129.999 -21v9c0 58.667 -36 88 -108 88c-48.667 0 -98.334 -10 -149.001 -30l-39 134c68 28 141 42 219 42
c93.333 0 162 -22 206 -66c38.667 -38 58 -95.333 58 -172v-311h-188v56c-40.667 -45.333 -93.667 -68 -159 -68zM274.002 107c28 0 50.666 8.16602 67.999 24.499s26 37.833 26 64.5v25c-22 9.33301 -46.667 14 -74 14s-48.666 -6.16699 -63.999 -18.5
s-23 -29.166 -23 -50.499c0 -18 6.16699 -32.333 18.5 -43s28.5 -16 48.5 -16zM179.001 579.999l-91 25c10.667 51.333 25.667 89 45 113s45.666 36 78.999 36c22.667 0 52.334 -6.5 89.001 -19.5s59 -19.5 67 -19.5c13.333 0 23.333 3.5 30 10.5s13.667 18.833 21 35.5
l91 -25c-10.667 -51.333 -25.667 -89 -45 -113s-45.666 -36 -78.999 -36c-22.667 0 -52.334 6.5 -89.001 19.5s-59 19.5 -67 19.5c-13.333 0 -23.333 -3.5 -30 -10.5s-13.667 -18.833 -21 -35.5z" />
    <glyph glyph-name="adieresis" unicode="&#xe4;" horiz-adv-x="599" 
d="M206 -12c-53.333 0 -96.998 14.833 -130.998 44.5s-51 71.167 -51 124.5c0 54.667 19 96.667 57 126s89.667 44 155 44c47.333 0 90.666 -7 129.999 -21v9c0 58.667 -36 88 -108 88c-48.667 0 -98.334 -10 -149.001 -30l-39 134c68 28 141 42 219 42
c93.333 0 162 -22 206 -66c38.667 -38 58 -95.333 58 -172v-311h-188v56c-40.667 -45.333 -93.667 -68 -159 -68zM274.002 107c28 0 50.666 8.16602 67.999 24.499s26 37.833 26 64.5v25c-22 9.33301 -46.667 14 -74 14s-48.666 -6.16699 -63.999 -18.5
s-23 -29.166 -23 -50.499c0 -18 6.16699 -32.333 18.5 -43s28.5 -16 48.5 -16zM105.001 588.999v143h165v-143h-165zM324.001 588.999v143h165v-143h-165z" />
    <glyph glyph-name="aring" unicode="&#xe5;" horiz-adv-x="599" 
d="M206 -12c-53.333 0 -96.998 14.833 -130.998 44.5s-51 71.167 -51 124.5c0 54.667 19 96.667 57 126s89.667 44 155 44c47.333 0 90.666 -7 129.999 -21v9c0 58.667 -36 88 -108 88c-48.667 0 -98.334 -10 -149.001 -30l-39 134c68 28 141 42 219 42
c93.333 0 162 -22 206 -66c38.667 -38 58 -95.333 58 -172v-311h-188v56c-40.667 -45.333 -93.667 -68 -159 -68zM274.002 107c28 0 50.666 8.16602 67.999 24.499s26 37.833 26 64.5v25c-22 9.33301 -46.667 14 -74 14s-48.666 -6.16699 -63.999 -18.5
s-23 -29.166 -23 -50.499c0 -18 6.16699 -32.333 18.5 -43s28.5 -16 48.5 -16zM297.001 590.999c-35.333 0 -66.333 12.832 -93 38.499s-40 55.834 -40 90.501c0 34 13.333 63.5 40 88.5s57.667 37.5 93 37.5s66.333 -12.5 93 -37.5s40 -55.167 40 -90.5
c0 -34 -13.333 -63.667 -40 -89s-57.667 -38 -93 -38zM297.001 651.998c18.667 0 34.5 6.66699 47.5 20s19.5 29.333 19.5 48c0 17.333 -6.5 32.5 -19.5 45.5s-28.833 19.5 -47.5 19.5s-34.5 -6.5 -47.5 -19.5s-19.5 -28.833 -19.5 -47.5c0 -18 6.5 -33.5 19.5 -46.5
s28.833 -19.5 47.5 -19.5z" />
    <glyph glyph-name="ae" unicode="&#xe6;" horiz-adv-x="940" 
d="M225 -12c-58.667 0 -106.83 14.667 -144.497 44s-56.5 71 -56.5 125c0 54.667 19 96.667 57 126s89.667 44 155 44c47.333 0 90.666 -7 129.999 -21v9c0 58.667 -36 88 -108 88c-48.667 0 -98.334 -10 -149.001 -30l-39 134c68 28 141 42 219 42
c81.333 0 142.333 -20.333 183 -61c45.333 43.333 101.666 65 168.999 65c86.667 0 153.167 -28.167 199.5 -84.5s69.5 -126.833 69.5 -211.5c0 -8.66699 -0.666992 -21.667 -2 -39h-362c16 -59.333 55 -89 117 -89c42.667 0 82.667 18.333 120 55l105 -87
c-58 -73.333 -136 -110 -234 -110c-87.333 0 -158 27 -212 81c-70 -53.333 -142.333 -80 -217 -80zM277.004 109c36 0 72.332 14.665 108.999 43.998c-10 23.333 -16.333 46 -19 68c-22 9.33301 -46.333 14 -73 14c-27.333 0 -48.666 -6.16699 -63.999 -18.5
s-23 -29.166 -23 -50.499c0 -17.333 6.5 -31.166 19.5 -41.499s29.833 -15.5 50.5 -15.5zM544.003 314.998h188c-3.33301 30 -13.5 53.833 -30.5 71.5s-38.5 26.5 -64.5 26.5c-24.667 0 -45.167 -8.83301 -61.5 -26.5s-26.833 -41.5 -31.5 -71.5z" />
    <glyph glyph-name="ccedilla" unicode="&#xe7;" horiz-adv-x="569" 
d="M292 -173l-151 63.999l81 110c-58 18.667 -104.667 52.5 -140 101.5s-53 104.833 -53 167.5c0 78 27.333 144.5 82 199.5s124 82.5 208 82.5c103.333 0 180.333 -40.333 231 -121l-129 -96c-27.333 38 -61 57 -101 57c-30 0 -55.167 -11.833 -75.5 -35.5
s-30.5 -52.5 -30.5 -86.5c0 -35.333 10 -64.666 30 -87.999s46 -35 78 -35c37.333 0 72 18.667 104 56l127 -92c-50 -73.333 -118 -114 -204 -122z" />
    <glyph glyph-name="egrave" unicode="&#xe8;" horiz-adv-x="605" 
d="M319 -13c-85.333 0 -155 26 -209 78s-81 120.333 -81 205c0 80 25.667 147.167 77 201.5s116.666 81.5 195.999 81.5c88.667 0 156.334 -28 203.001 -84s70 -126.667 70 -212c0 -17.333 -0.333008 -30.333 -1 -39h-362c15.333 -59.333 54.333 -89 117 -89
c42.667 0 82.667 18.333 120 55l105 -87c-58 -73.333 -136.333 -110 -235 -110zM209 315h187.999c-3.33301 30 -13.333 53.833 -30 71.5s-38 26.5 -64 26.5c-24.667 0 -45.167 -8.83301 -61.5 -26.5s-27.166 -41.5 -32.499 -71.5zM243.999 589l-147 128l177 57l104 -185
h-134z" />
    <glyph glyph-name="eacute" unicode="&#xe9;" horiz-adv-x="605" 
d="M319 -13c-85.333 0 -155 26 -209 78s-81 120.333 -81 205c0 80 25.667 147.167 77 201.5s116.666 81.5 195.999 81.5c88.667 0 156.334 -28 203.001 -84s70 -126.667 70 -212c0 -17.333 -0.333008 -30.333 -1 -39h-362c15.333 -59.333 54.333 -89 117 -89
c42.667 0 82.667 18.333 120 55l105 -87c-58 -73.333 -136.333 -110 -235 -110zM209 315h187.999c-3.33301 30 -13.333 53.833 -30 71.5s-38 26.5 -64 26.5c-24.667 0 -45.167 -8.83301 -61.5 -26.5s-27.166 -41.5 -32.499 -71.5zM227.999 589l104 185l177 -57l-147 -128
h-134z" />
    <glyph glyph-name="ecircumflex" unicode="&#xea;" horiz-adv-x="605" 
d="M319 -13c-85.333 0 -155 26 -209 78s-81 120.333 -81 205c0 80 25.667 147.167 77 201.5s116.666 81.5 195.999 81.5c88.667 0 156.334 -28 203.001 -84s70 -126.667 70 -212c0 -17.333 -0.333008 -30.333 -1 -39h-362c15.333 -59.333 54.333 -89 117 -89
c42.667 0 82.667 18.333 120 55l105 -87c-58 -73.333 -136.333 -110 -235 -110zM209 315h187.999c-3.33301 30 -13.333 53.833 -30 71.5s-38 26.5 -64 26.5c-24.667 0 -45.167 -8.83301 -61.5 -26.5s-27.166 -41.5 -32.499 -71.5zM97.999 585l128 165h154l128 -165h-122
l-84 61l-84 -61h-120z" />
    <glyph glyph-name="edieresis" unicode="&#xeb;" horiz-adv-x="605" 
d="M319 -13c-85.333 0 -155 26 -209 78s-81 120.333 -81 205c0 80 25.667 147.167 77 201.5s116.666 81.5 195.999 81.5c88.667 0 156.334 -28 203.001 -84s70 -126.667 70 -212c0 -17.333 -0.333008 -30.333 -1 -39h-362c15.333 -59.333 54.333 -89 117 -89
c42.667 0 82.667 18.333 120 55l105 -87c-58 -73.333 -136.333 -110 -235 -110zM209 315h187.999c-3.33301 30 -13.333 53.833 -30 71.5s-38 26.5 -64 26.5c-24.667 0 -45.167 -8.83301 -61.5 -26.5s-27.166 -41.5 -32.499 -71.5zM110.999 587v143h165v-143h-165z
M329.999 587v143h165v-143h-165z" />
    <glyph glyph-name="igrave" unicode="&#xec;" horiz-adv-x="300" 
d="M55 0v541h190v-541h-190zM95 587l-147 128l177 57l104 -185h-134z" />
    <glyph glyph-name="iacute" unicode="&#xed;" horiz-adv-x="300" 
d="M55 0v541h190v-541h-190zM73 587l104 185l177 -57l-147 -128h-134z" />
    <glyph glyph-name="icircumflex" unicode="&#xee;" horiz-adv-x="300" 
d="M55 0v541h190v-541h-190zM-54 587l128 165h154l128 -165h-122l-84 61l-84 -61h-120z" />
    <glyph glyph-name="idieresis" unicode="&#xef;" horiz-adv-x="300" 
d="M55 0v541h190v-541h-190zM-41 587v143h165v-143h-165zM178 587v143h165v-143h-165z" />
    <glyph glyph-name="eth" unicode="&#xf0;" horiz-adv-x="656" 
d="M321 -13c-84 0 -153.167 25.168 -207.5 75.501s-81.5 113.166 -81.5 188.499c0 64.667 21.833 118.5 65.5 161.5s101.167 64.5 172.5 64.5c42.667 0 78.667 -9 108 -27l-80 107l-115 -44l-65 89l117 40l-64 88h202l21 -30l99 37l64 -89l-103 -35l64 -90
c36 -52 61.167 -97 75.5 -135s21.5 -81 21.5 -129c0 -77.333 -27 -142 -81 -194s-125 -78 -213 -78zM325 146.001c32.667 0 58.668 9.83301 78.001 29.5s29 44.5 29 74.5c0 28 -10.167 52 -30.5 72s-46.5 30 -78.5 30c-32.667 0 -58.834 -9.66699 -78.501 -29
s-29.5 -44 -29.5 -74c0 -28.667 10.333 -53 31 -73s47 -30 79 -30z" />
    <glyph glyph-name="ntilde" unicode="&#xf1;" horiz-adv-x="634" 
d="M51 0v541h190v-76c45.333 58.667 99.333 88 162 88c57.333 0 102.333 -17.833 135 -53.5s49 -84.167 49 -145.5v-354h-190v293c0 28.667 -6.83301 51 -20.5 67s-32.167 24 -55.5 24c-24 0 -43.333 -8 -58 -24s-22 -38.333 -22 -67v-293h-190zM202 580l-91 25
c10.667 51.333 25.667 89 45 113s45.666 36 78.999 36c22 0 51.333 -6.5 88 -19.5s59.334 -19.5 68.001 -19.5c13.333 0 23.333 3.5 30 10.5s13.667 18.833 21 35.5l91 -25c-10.667 -51.333 -25.667 -89 -45 -113s-45.666 -36 -78.999 -36c-22 0 -51.333 6.5 -88 19.5
s-59.334 19.5 -68.001 19.5c-13.333 0 -23.333 -3.5 -30 -10.5s-13.667 -18.833 -21 -35.5z" />
    <glyph glyph-name="ograve" unicode="&#xf2;" horiz-adv-x="656" 
d="M327 -13c-85.333 0 -156.333 27.5 -213 82.5s-85 121.833 -85 200.5c0 78 28.5 144.667 85.5 200s128.5 83 214.5 83c85.333 0 156.333 -27.5 213 -82.5s85 -121.833 85 -200.5c0 -78 -28.5 -144.667 -85.5 -200s-128.5 -83 -214.5 -83zM329 148
c34 0 61.333 11.667 82 35s31 52.333 31 87c0 33.333 -11 62 -33 86s-49.333 36 -82 36c-34 0 -61.333 -11.667 -82 -35s-31 -52.333 -31 -87c0 -33.333 11 -62 33 -86s49.333 -36 82 -36zM267 589l-147 128l177 57l104 -185h-134z" />
    <glyph glyph-name="oacute" unicode="&#xf3;" horiz-adv-x="656" 
d="M327 -13c-85.333 0 -156.333 27.5 -213 82.5s-85 121.833 -85 200.5c0 78 28.5 144.667 85.5 200s128.5 83 214.5 83c85.333 0 156.333 -27.5 213 -82.5s85 -121.833 85 -200.5c0 -78 -28.5 -144.667 -85.5 -200s-128.5 -83 -214.5 -83zM329 148
c34 0 61.333 11.667 82 35s31 52.333 31 87c0 33.333 -11 62 -33 86s-49.333 36 -82 36c-34 0 -61.333 -11.667 -82 -35s-31 -52.333 -31 -87c0 -33.333 11 -62 33 -86s49.333 -36 82 -36zM255 589l104 185l177 -57l-147 -128h-134z" />
    <glyph glyph-name="ocircumflex" unicode="&#xf4;" horiz-adv-x="656" 
d="M327 -13c-85.333 0 -156.333 27.5 -213 82.5s-85 121.833 -85 200.5c0 78 28.5 144.667 85.5 200s128.5 83 214.5 83c85.333 0 156.333 -27.5 213 -82.5s85 -121.833 85 -200.5c0 -78 -28.5 -144.667 -85.5 -200s-128.5 -83 -214.5 -83zM329 148
c34 0 61.333 11.667 82 35s31 52.333 31 87c0 33.333 -11 62 -33 86s-49.333 36 -82 36c-34 0 -61.333 -11.667 -82 -35s-31 -52.333 -31 -87c0 -33.333 11 -62 33 -86s49.333 -36 82 -36zM123 585l128 165h154l128 -165h-122l-84 61l-84 -61h-120z" />
    <glyph glyph-name="otilde" unicode="&#xf5;" horiz-adv-x="656" 
d="M327 -13c-85.333 0 -156.333 27.5 -213 82.5s-85 121.833 -85 200.5c0 78 28.5 144.667 85.5 200s128.5 83 214.5 83c85.333 0 156.333 -27.5 213 -82.5s85 -121.833 85 -200.5c0 -78 -28.5 -144.667 -85.5 -200s-128.5 -83 -214.5 -83zM329 148
c34 0 61.333 11.667 82 35s31 52.333 31 87c0 33.333 -11 62 -33 86s-49.333 36 -82 36c-34 0 -61.333 -11.667 -82 -35s-31 -52.333 -31 -87c0 -33.333 11 -62 33 -86s49.333 -36 82 -36zM208 580l-91.001 25c10.667 51.333 25.667 89 45 113s45.666 36 78.999 36
c22 0 51.333 -6.5 88 -19.5s59.334 -19.5 68.001 -19.5c13.333 0 23.333 3.5 30 10.5s13.667 18.833 21 35.5l91 -25c-10.667 -51.333 -25.667 -89 -45 -113s-45.666 -36 -78.999 -36c-22.667 0 -52.167 6.5 -88.5 19.5s-58.833 19.5 -67.5 19.5
c-13.333 0 -23.333 -3.5 -30 -10.5s-13.667 -18.833 -21 -35.5z" />
    <glyph glyph-name="odieresis" unicode="&#xf6;" horiz-adv-x="656" 
d="M327 -13c-85.333 0 -156.333 27.5 -213 82.5s-85 121.833 -85 200.5c0 78 28.5 144.667 85.5 200s128.5 83 214.5 83c85.333 0 156.333 -27.5 213 -82.5s85 -121.833 85 -200.5c0 -78 -28.5 -144.667 -85.5 -200s-128.5 -83 -214.5 -83zM329 148
c34 0 61.333 11.667 82 35s31 52.333 31 87c0 33.333 -11 62 -33 86s-49.333 36 -82 36c-34 0 -61.333 -11.667 -82 -35s-31 -52.333 -31 -87c0 -33.333 11 -62 33 -86s49.333 -36 82 -36zM136 587v143h165v-143h-165zM355 587v143h165v-143h-165z" />
    <glyph glyph-name="divide" unicode="&#xf7;" horiz-adv-x="640" 
d="M228 34v175h178v-175h-178zM74 271v167h491v-167h-491zM228 500v175h178v-175h-178z" />
    <glyph glyph-name="oslash" unicode="&#xf8;" horiz-adv-x="656" 
d="M327 -13c-54.667 0 -105.332 12.666 -151.999 37.999l-28 -30h-133l83 92c-45.333 51.333 -68 112.333 -68 183c0 78 28.5 144.667 85.5 200s128.5 83 214.5 83c55.333 0 105.666 -12.667 150.999 -38l29 31h133l-83 -92c45.333 -51.333 68 -112.666 68 -183.999
c0 -78 -28.5 -144.667 -85.5 -200s-128.5 -83 -214.5 -83zM329.002 139.999c36 0 65.167 12.5 87.5 37.5s33.5 55.833 33.5 92.5c0 16.667 -3.33301 34 -10 52l-155 -174c14 -5.33301 28.667 -8 44 -8zM216.002 217.999l156 173c-12.667 6 -27.667 9 -45 9
c-36 0 -65.167 -12.5 -87.5 -37.5s-33.5 -55.833 -33.5 -92.5c0 -16.667 3.33301 -34 10 -52z" />
    <glyph glyph-name="ugrave" unicode="&#xf9;" horiz-adv-x="634" 
d="M231 -12c-57.333 0 -102.333 17.667 -135 53s-49 84 -49 146v354h190v-293c0 -28.667 7 -51 21 -67s32.667 -24 56 -24s42.333 8 57 24s22 38.333 22 67v293h190v-541h-190v74c-44.667 -57.333 -98.667 -86 -162 -86zM272 587l-147 128l177 57l104 -185h-134z" />
    <glyph glyph-name="uacute" unicode="&#xfa;" horiz-adv-x="634" 
d="M231 -12c-57.333 0 -102.333 17.667 -135 53s-49 84 -49 146v354h190v-293c0 -28.667 7 -51 21 -67s32.667 -24 56 -24s42.333 8 57 24s22 38.333 22 67v293h190v-541h-190v74c-44.667 -57.333 -98.667 -86 -162 -86zM228 587l104 185l177 -57l-147 -128h-134z" />
    <glyph glyph-name="ucircumflex" unicode="&#xfb;" horiz-adv-x="634" 
d="M231 -12c-57.333 0 -102.333 17.667 -135 53s-49 84 -49 146v354h190v-293c0 -28.667 7 -51 21 -67s32.667 -24 56 -24s42.333 8 57 24s22 38.333 22 67v293h190v-541h-190v74c-44.667 -57.333 -98.667 -86 -162 -86zM112 587l128 165h154l128 -165h-122l-84 61l-84 -61
h-120z" />
    <glyph glyph-name="udieresis" unicode="&#xfc;" horiz-adv-x="634" 
d="M231 -12c-57.333 0 -102.333 17.667 -135 53s-49 84 -49 146v354h190v-293c0 -28.667 7 -51 21 -67s32.667 -24 56 -24s42.333 8 57 24s22 38.333 22 67v293h190v-541h-190v74c-44.667 -57.333 -98.667 -86 -162 -86zM125 587v143h165v-143h-165zM344 587v143h165v-143
h-165z" />
    <glyph glyph-name="yacute" unicode="&#xfd;" horiz-adv-x="626" 
d="M211 -163c-60 0 -118.001 15.667 -174.001 47l59 133c32 -19.333 59.667 -29 83 -29c18.667 0 33.334 7.33301 44.001 22l-212 531h199l108 -326l102 326h195l-198 -528c-24 -64 -51 -109.333 -81 -136s-71.667 -40 -125 -40zM225.999 587l104 185l177 -57l-147 -128
h-134z" />
    <glyph glyph-name="thorn" unicode="&#xfe;" horiz-adv-x="676" 
d="M51 -160l-0.000976562 890.001h190v-261c46 56 100.667 84 164 84c66.667 0 123.334 -25.833 170.001 -77.5s70 -119.834 70 -204.501c0 -85.333 -23.167 -153.833 -69.5 -205.5s-102.833 -77.5 -169.5 -77.5c-65.333 0 -120.333 26 -165 78v-226h-190zM346.999 147.001
c31.333 0 57.666 11.666 78.999 34.999s32 53.333 32 90c0 35.333 -10.667 64.5 -32 87.5s-47.666 34.5 -78.999 34.5c-30.667 0 -56.667 -11.667 -78 -35s-32 -53 -32 -89c0 -35.333 10.667 -64.666 32 -87.999s47.333 -35 78 -35z" />
    <glyph glyph-name="ydieresis" unicode="&#xff;" horiz-adv-x="626" 
d="M211 -163c-60 0 -118.001 15.667 -174.001 47l59 133c32 -19.333 59.667 -29 83 -29c18.667 0 33.334 7.33301 44.001 22l-212 531h199l108 -326l102 326h195l-198 -528c-24 -64 -51 -109.333 -81 -136s-71.667 -40 -125 -40zM119.999 587v143h165v-143h-165z
M338.999 587v143h165v-143h-165z" />
    <glyph glyph-name="dotlessi" unicode="&#x131;" horiz-adv-x="300" 
d="M55 0v541h190v-541h-190z" />
    <glyph glyph-name="Lslash" unicode="&#x141;" horiz-adv-x="659" 
d="M107 0v245l-76 -22v173l76 22v282h193v-224l177 52v-174l-177 -52v-132h338v-170h-531z" />
    <glyph glyph-name="lslash" unicode="&#x142;" horiz-adv-x="401" 
d="M106 0v264l-82 -24v170l82 24v296h189v-242l82 24v-171l-82 -24v-317h-189z" />
    <glyph glyph-name="OE" unicode="&#x152;" horiz-adv-x="1078" 
d="M433 0c-122.667 0 -219.166 32 -289.499 96s-105.5 148 -105.5 252s35.667 188.667 107 254s168.666 98 291.999 98h598v-165h-349v-106h314v-153h-314v-111h354v-165h-607zM428.001 169l66 -0.000976562v362h-66c-58 0 -104.333 -16.167 -139 -48.5
s-52 -76.833 -52 -133.5c0 -55.333 17.5 -99.166 52.5 -131.499s81.167 -48.5 138.5 -48.5z" />
    <glyph glyph-name="oe" unicode="&#x153;" horiz-adv-x="1013" 
d="M320 -13c-81.333 0 -150.165 27.5 -206.498 82.5s-84.5 121.833 -84.5 200.5c0 78 28.5 144.667 85.5 200s126.833 83 209.5 83c81.333 0 148 -27 200 -81c48.667 54 111.667 81 189 81c87.333 0 154.166 -28.167 200.499 -84.5s69.5 -126.833 69.5 -211.5
c0 -8.66699 -0.666992 -21.667 -2 -39h-361c15.333 -59.333 54 -89 116 -89c43.333 0 83.666 18.333 120.999 55l105 -87c-58.667 -73.333 -136 -110 -232 -110c-86.667 0 -156 27 -208 81c-52.667 -54 -120 -81 -202 -81zM326.001 148c33.333 0 60.167 11.667 80.5 35
s30.5 52.333 30.5 87c0 33.333 -10.667 62 -32 86s-48.333 36 -81 36s-59.167 -11.833 -79.5 -35.5s-30.5 -52.5 -30.5 -86.5c0 -33.333 10.667 -62 32 -86s48 -36 80 -36zM617.002 315h187.999c-3.33301 30 -13.333 53.833 -30 71.5s-38 26.5 -64 26.5
c-24.667 0 -45.167 -8.83301 -61.5 -26.5s-27.166 -41.5 -32.499 -71.5z" />
    <glyph glyph-name="Scaron" unicode="&#x160;" horiz-adv-x="652" 
d="M337 -12c-132 0 -241.333 38.667 -328 116l108 129c70 -56 145.667 -84 227 -84c53.333 0 80 16.667 80 50c0 14.667 -8 26.834 -24 36.501s-47.333 19.834 -94 30.501c-42.667 10 -77.834 19.833 -105.501 29.5s-54.667 22.667 -81 39s-45.833 37.166 -58.5 62.499
s-19 55.666 -19 90.999c0 66 24.5 119.833 73.5 161.5s114.833 62.5 197.5 62.5c114.667 0 210.667 -31 288 -93l-97 -137c-65.333 46 -130.666 69 -195.999 69c-22.667 0 -40 -4.33301 -52 -13s-18 -20 -18 -34c0 -16 8.16699 -28.667 24.5 -38s48.5 -19.333 96.5 -30
c88 -19.333 153.5 -45.166 196.5 -77.499s64.5 -79.833 64.5 -142.5c0 -70.667 -25.667 -126.334 -77 -167.001s-120 -61 -206 -61zM243 747l-128 165h122l84 -61l84 61h120l-128 -165h-154z" />
    <glyph glyph-name="scaron" unicode="&#x161;" horiz-adv-x="514" 
d="M266 -12c-96.667 0 -181.999 26.666 -255.999 79.999l71 115c62.667 -41.333 124.667 -62 186 -62c32 0 48 10.333 48 31c0 10 -6.5 18 -19.5 24s-35.5 13.333 -67.5 22c-63.333 17.333 -111.166 38.166 -143.499 62.499s-48.5 61.833 -48.5 112.5
c0 56 20.167 99.833 60.5 131.5s92.5 47.5 156.5 47.5c83.333 0 157.666 -21 222.999 -63l-65 -120c-60 33.333 -113.333 50 -160 50c-29.333 0 -44 -9.33301 -44 -28c0 -9.33301 6.33301 -17.166 19 -23.499s35.667 -14.5 69 -24.5c30.667 -8.66699 56 -17.167 76 -25.5
s39.667 -19.166 59 -32.499s33.666 -29.5 42.999 -48.5s14 -41.5 14 -67.5c0 -58 -20 -102.667 -60 -134s-93.667 -47 -161 -47zM182.001 586.999l-128 165h122l84 -61l84 61h120l-128 -165h-154z" />
    <glyph glyph-name="Ydieresis" unicode="&#x178;" horiz-adv-x="723" 
d="M264 0v262l-266 438h221l144 -255l145 255h217l-266 -435v-265h-195zM170 747v143h165v-143h-165zM389 747v143h165v-143h-165z" />
    <glyph glyph-name="Zcaron" unicode="&#x17d;" horiz-adv-x="698" 
d="M40 0v141l351 395h-339v164h607v-141l-351 -395h351v-164h-619zM277 747l-128 165h122l84 -61l84 61h120l-128 -165h-154z" />
    <glyph glyph-name="zcaron" unicode="&#x17e;" horiz-adv-x="563" 
d="M32 0v125l250 265h-241v151h493v-125l-251 -265h251v-151h-502zM207 587l-128 165h122l84 -61l84 61h120l-128 -165h-154z" />
    <glyph glyph-name="florin" unicode="&#x192;" horiz-adv-x="553" 
d="M111 -10c-28 0 -56.6709 3.33398 -86.0039 10.001v138c19.333 -4 35 -6 47 -6c21.333 0 37 4.83301 47 14.5s17.333 26.5 22 50.5l23 132h-61v144h86l13 65c10.667 58.667 33.667 102 69 130s85 42 149 42c42.667 0 79.334 -4.33301 110.001 -13v-140
c-24 6 -46.333 9 -67 9c-23.333 0 -41.166 -4.83301 -53.499 -14.5s-20.5 -25.834 -24.5 -48.501l-5 -30h114v-144h-140l-28 -157c-11.333 -66 -33.666 -112.833 -66.999 -140.5s-82.666 -41.5 -147.999 -41.5z" />
    <glyph glyph-name="circumflex" unicode="&#x2c6;" 
d="M45 587l128 165h154l128 -165h-122l-84 61l-84 -61h-120z" />
    <glyph glyph-name="caron" unicode="&#x2c7;" 
d="M173 587l-128 165h122l84 -61l84 61h120l-128 -165h-154z" />
    <glyph glyph-name="breve" unicode="&#x2d8;" 
d="M250 585c-56 0 -101.667 14.667 -137 44s-55.333 70.333 -60 123h111c13.333 -38.667 42 -58 86 -58s72.667 19.333 86 58h111c-4.66699 -52.667 -24.667 -93.667 -60 -123s-81 -44 -137 -44z" />
    <glyph glyph-name="dotaccent" unicode="&#x2d9;" 
d="M165 587v143h170v-143h-170z" />
    <glyph glyph-name="ring" unicode="&#x2da;" 
d="M250 591c-35.333 0 -66.333 12.832 -93 38.499s-40 55.834 -40 90.501c0 34 13.333 63.5 40 88.5s57.667 37.5 93 37.5s66.333 -12.5 93 -37.5s40 -55.167 40 -90.5c0 -34 -13.333 -63.667 -40 -89s-57.667 -38 -93 -38zM250 651.999c18.667 0 34.5 6.66699 47.5 20
s19.5 29.333 19.5 48c0 17.333 -6.5 32.5 -19.5 45.5s-28.833 19.5 -47.5 19.5s-34.5 -6.5 -47.5 -19.5s-19.5 -28.833 -19.5 -47.5c0 -18 6.5 -33.5 19.5 -46.5s28.833 -19.5 47.5 -19.5z" />
    <glyph glyph-name="ogonek" unicode="&#x2db;" 
d="M326 -167c-54.667 0 -96.333 9.49902 -125 28.499s-43 45.833 -43 80.5c0 22.667 6.33301 45.334 19 68.001h122c-3.33301 -12 -5 -23.333 -5 -34c0 -38 29 -57.333 87 -58v-82c-20 -2 -38.333 -3 -55 -3z" />
    <glyph glyph-name="tilde" unicode="&#x2dc;" 
d="M130 580l-91 25c10.667 51.333 25.667 89 45 113s45.666 36 78.999 36c22 0 51.333 -6.5 88 -19.5s59.334 -19.5 68.001 -19.5c13.333 0 23.333 3.5 30 10.5s13.667 18.833 21 35.5l91 -25c-10.667 -51.333 -25.667 -89 -45 -113s-45.666 -36 -78.999 -36
c-22 0 -51.333 6.5 -88 19.5s-59.334 19.5 -68.001 19.5c-13.333 0 -23.333 -3.5 -30 -10.5s-13.667 -18.833 -21 -35.5z" />
    <glyph glyph-name="hungarumlaut" unicode="&#x2dd;" 
d="M30 588l99 184l156 -54l30 54l166 -57l-143 -127h-123l59 108l-120 -108h-124z" />
    <glyph glyph-name="Omega" unicode="&#x3a9;" horiz-adv-x="778" 
d="M51 0l0.000976562 145h173v19c-56 14.667 -98.833 45.167 -128.5 91.5s-44.5 99.5 -44.5 159.5c0 95.333 32 169 96 221s145 78 243 78c95.333 0 175.166 -26.5 239.499 -79.5s96.5 -125.833 96.5 -218.5c0 -58.667 -15.167 -112.5 -45.5 -161.5
s-72.833 -79.167 -127.5 -90.5v-19h172v-145h-302v242c41.333 6 72.833 25.167 94.5 57.5s32.5 68.833 32.5 109.5c0 44.667 -14.5 82.167 -43.5 112.5s-68.167 45.5 -117.5 45.5s-88.333 -15.833 -117 -47.5s-43 -70.167 -43 -115.5c0 -40 10.5 -75.5 31.5 -106.5
s51.833 -49.5 92.5 -55.5v-242h-302z" />
    <glyph glyph-name="pi" unicode="&#x3c0;" 
d="M0 0v700h500v-700h-500zM81 49h339l-170 255zM49 96l171 254l-171 254v-508zM450 96v508l-171 -254zM250 395l170 255h-339z" />
    <glyph glyph-name="afii10023" unicode="&#x401;" horiz-adv-x="667" 
d="M62 0v700h563v-165h-371v-106h336v-153h-336v-111h376v-165h-568zM159 747v143h165v-143h-165zM378 747v143h165v-143h-165z" />
    <glyph glyph-name="afii10051" unicode="&#x402;" horiz-adv-x="860" 
d="M566 -67c-42 0 -79.666 4.33301 -112.999 13l21 168c8 -1.33301 21 -2 39 -2c63.333 0 95 28 95 84c0 26 -8.5 46.667 -25.5 62s-41.167 23 -72.5 23c-47.333 0 -85 -12.667 -113 -38v-243h-194v530h-180v170h614v-170h-240v-115c51.333 30 107.666 45 168.999 45
c74 0 133.167 -21.667 177.5 -65s66.5 -108.333 66.5 -195c0 -88 -22.167 -154.5 -66.5 -199.5s-103.5 -67.5 -177.5 -67.5z" />
    <glyph glyph-name="afii10052" unicode="&#x403;" horiz-adv-x="586" 
d="M62 0v700h504v-170h-310v-530h-194zM207 747l104 185l177 -57l-147 -128h-134z" />
    <glyph glyph-name="afii10053" unicode="&#x404;" horiz-adv-x="730" 
d="M399 -14c-101.333 0 -186.831 34.5 -256.498 103.5s-104.5 155.833 -104.5 260.5c0 102.667 35.167 189 105.5 259s158.166 105 263.499 105c115.333 0 209 -43.667 281 -131l-131 -112c-41.333 46.667 -92 70 -152 70c-38 0 -71 -11 -99 -33s-48.333 -50.667 -61 -86
h227v-137h-230c11.333 -38 31.333 -68.667 60 -92s63 -35 103 -35c58 0 109.667 25.333 155 76l141 -100c-74.667 -98.667 -175.334 -148 -302.001 -148z" />
    <glyph glyph-name="afii10054" unicode="&#x405;" horiz-adv-x="652" 
d="M337 -12c-132 0 -241.333 38.667 -328 116l108 129c70 -56 145.667 -84 227 -84c53.333 0 80 16.667 80 50c0 14.667 -8 26.834 -24 36.501s-47.333 19.834 -94 30.501c-42.667 10 -77.834 19.833 -105.501 29.5s-54.667 22.667 -81 39s-45.833 37.166 -58.5 62.499
s-19 55.666 -19 90.999c0 66 24.5 119.833 73.5 161.5s114.833 62.5 197.5 62.5c114.667 0 210.667 -31 288 -93l-97 -137c-65.333 46 -130.666 69 -195.999 69c-22.667 0 -40 -4.33301 -52 -13s-18 -20 -18 -34c0 -16 8.16699 -28.667 24.5 -38s48.5 -19.333 96.5 -30
c88 -19.333 153.5 -45.166 196.5 -77.499s64.5 -79.833 64.5 -142.5c0 -70.667 -25.667 -126.334 -77 -167.001s-120 -61 -206 -61z" />
    <glyph glyph-name="afii10055" unicode="&#x406;" horiz-adv-x="327" 
d="M66 0v700h195v-700h-195z" />
    <glyph glyph-name="afii10056" unicode="&#x407;" horiz-adv-x="327" 
d="M66 0v700h195v-700h-195zM-28 747v143h165v-143h-165zM191 747v143h165v-143h-165z" />
    <glyph glyph-name="afii10057" unicode="&#x408;" horiz-adv-x="564" 
d="M250 -12c-106.667 0 -188.667 39.333 -246 118l125 118c36 -43.333 72.333 -65 109 -65c25.333 0 45 8.33301 59 25s21 41 21 73v443h193v-444c0 -85.333 -23 -151 -69 -197c-47.333 -47.333 -111.333 -71 -192 -71z" />
    <glyph glyph-name="afii10058" unicode="&#x409;" horiz-adv-x="1106" 
d="M102 -10c-45.333 0 -83.999 5.33203 -115.999 15.999l13 149c12 -2.66699 27 -4 45 -4c13.333 0 24.333 2 33 6s18.167 14.5 28.5 31.5s18.5 41 24.5 72s11 75.333 15 133s6 127.5 6 209.5v97h538v-220h106c87.333 0 157.666 -20.5 210.999 -61.5s80 -99.833 80 -176.5
c0 -75.333 -25.333 -134.5 -76 -177.5s-119 -64.5 -205 -64.5h-310v530h-163v-27c0 -83.333 -3.66699 -155.666 -11 -216.999s-17.5 -110.833 -30.5 -148.5s-29.5 -67.667 -49.5 -90s-40.833 -37.5 -62.5 -45.5s-47.167 -12 -76.5 -12zM689.001 162.999h100.999
c32.667 0 57.834 7.16699 75.501 21.5s26.5 35.166 26.5 62.499c0 24.667 -9 44.334 -27 59.001s-42.667 22 -74 22h-102v-165z" />
    <glyph glyph-name="afii10059" unicode="&#x40a;" horiz-adv-x="1116" 
d="M62 0v699.999h194v-246h249v246h194v-246h116c84.667 0 152.667 -19.167 204 -57.5s77 -94.166 77 -167.499c0 -72 -24.333 -128.167 -73 -168.5s-114.667 -60.5 -198 -60.5h-320v282h-249v-282h-194zM699 162.999h111c29.333 0 52 6.33301 68 19s24 31 24 55
c0 22 -8.16699 39.333 -24.5 52s-38.5 19 -66.5 19h-112v-145z" />
    <glyph glyph-name="afii10060" unicode="&#x40b;" horiz-adv-x="860" 
d="M203 0l0.000976562 530h-180v170h614v-170h-240v-115c51.333 30 107.666 45 168.999 45c72.667 0 131.5 -20.167 176.5 -60.5s67.5 -96.5 67.5 -168.5v-231h-194v150c0 87.333 -32 131 -96 131c-54 0 -95 -12.667 -123 -38v-243h-194z" />
    <glyph glyph-name="afii10061" unicode="&#x40c;" horiz-adv-x="730" 
d="M62 0v700h194v-284l241 284h230l-265 -301l274 -399h-233l-176 260l-71 -79v-181h-194zM294 747l104 185l177 -57l-147 -128h-134z" />
    <glyph glyph-name="afii10062" unicode="&#x40e;" horiz-adv-x="736" 
d="M226 -10c-59.333 0 -115.333 15.667 -168 47l76 140c24 -16 50.333 -24 79 -24c23.333 0 43.666 10 60.999 30l-274 517h216l159 -329l150 329h211l-273 -534c-32 -63.333 -66.167 -108.5 -102.5 -135.5s-81.166 -40.5 -134.499 -40.5zM375 745
c-48 0 -87.501 13.333 -118.501 40s-50.167 64.334 -57.5 113.001l106 19c14.667 -40 38 -60 70 -60c32.667 0 56.334 20 71.001 60l106 -19c-7.33301 -48.667 -26.5 -86.334 -57.5 -113.001s-70.833 -40 -119.5 -40z" />
    <glyph glyph-name="afii10145" unicode="&#x40f;" horiz-adv-x="751" 
d="M280 -140v140h-218v700h194v-530h239v530h194v-700h-223v-140h-186z" />
    <glyph glyph-name="afii10017" unicode="&#x410;" horiz-adv-x="795" 
d="M6 0l298 705h187l298 -705h-208l-51 125h-270l-50 -125h-204zM317 276h157l-78 199z" />
    <glyph glyph-name="afii10018" unicode="&#x411;" horiz-adv-x="700" 
d="M62 0v699.999h563v-165h-369v-81h135c84.667 0 152.667 -19.167 204 -57.5s77 -94.166 77 -167.499c0 -72 -24.333 -128.167 -73 -168.5s-114.667 -60.5 -198 -60.5h-339zM256 162.999h130c29.333 0 52 6.33301 68 19s24 31 24 55c0 22 -8.16699 39.333 -24.5 52
s-38.5 19 -66.5 19h-131v-145z" />
    <glyph glyph-name="afii10019" unicode="&#x412;" horiz-adv-x="715" 
d="M62 0v700h359c85.333 0 149 -21 191 -63c30 -30 45 -68.333 45 -115c0 -72.667 -36 -124.667 -108 -156c45.333 -14.667 79.833 -35.667 103.5 -63s35.5 -64 35.5 -110c0 -60 -23.333 -107.167 -70 -141.5s-111.667 -51.5 -195 -51.5h-361zM251 156h150c62 0 93 22 93 66
c0 42 -31.667 63 -95 63h-148v-129zM251 421h122c61.333 0 92 21 92 63c0 40 -29.333 60 -88 60h-126v-123z" />
    <glyph glyph-name="afii10020" unicode="&#x413;" horiz-adv-x="586" 
d="M62 0v700h504v-170h-310v-530h-194z" />
    <glyph glyph-name="afii10021" unicode="&#x414;" horiz-adv-x="770" 
d="M10 -140v310h62c25.333 68 43.5 139 54.5 213s16.5 173.667 16.5 299v18h533v-530h79l-22 -310h-164v140h-372l-13 -140h-174zM275 170h207v360h-152v-7c0 -125.333 -18.333 -243 -55 -353z" />
    <glyph glyph-name="afii10022" unicode="&#x415;" horiz-adv-x="667" 
d="M62 0v700h563v-165h-371v-106h336v-153h-336v-111h376v-165h-568z" />
    <glyph glyph-name="afii10024" unicode="&#x416;" horiz-adv-x="1096" 
d="M-6 0l258 405l-249 295h227l221 -284v284h194v-284l221 284h227l-249 -295l258 -405h-230l-160 264l-67 -78v-186h-194v186l-67 78l-160 -264h-230z" />
    <glyph glyph-name="afii10025" unicode="&#x417;" horiz-adv-x="640" 
d="M332 -13c-74 0 -135.001 9.83203 -183.001 29.499s-94 48.834 -138 87.501l101 129c55.333 -55.333 121 -83 197 -83c34.667 0 61.167 6.33301 79.5 19s27.5 29.334 27.5 50.001c0 41.333 -37.333 62 -112 62h-73v144h71c66 0 99 21.333 99 64c0 18 -8 32.667 -24 44
s-37.333 17 -64 17c-30 0 -62 -6.5 -96 -19.5s-62 -29.5 -84 -49.5l-96 114c80.667 79.333 178.334 119 293.001 119c77.333 0 140.333 -17.833 189 -53.5s73 -80.834 73 -135.501c0 -73.333 -35 -126.333 -105 -159c82 -28 123 -82 123 -162
c0 -63.333 -25.167 -115.333 -75.5 -156s-117.833 -61 -202.5 -61z" />
    <glyph glyph-name="afii10026" unicode="&#x418;" horiz-adv-x="768" 
d="M62 0v700h192v-394l271 394h181v-700h-192v394l-271 -394h-181z" />
    <glyph glyph-name="afii10027" unicode="&#x419;" horiz-adv-x="768" 
d="M62 0v700h192v-394l271 394h181v-700h-192v394l-271 -394h-181zM390 745c-48 0 -87.501 13.333 -118.501 40s-50.167 64.334 -57.5 113.001l106 19c14.667 -40 38 -60 70 -60c32.667 0 56.334 20 71.001 60l106 -19c-7.33301 -48.667 -26.5 -86.334 -57.5 -113.001
s-70.833 -40 -119.5 -40z" />
    <glyph glyph-name="afii10028" unicode="&#x41a;" horiz-adv-x="730" 
d="M62 0v700h194v-284l241 284h230l-265 -301l274 -399h-233l-176 260l-71 -79v-181h-194z" />
    <glyph glyph-name="afii10029" unicode="&#x41b;" horiz-adv-x="751" 
d="M102 -10c-45.333 0 -84 5.33203 -116 15.999l13 149c12 -2.66699 27 -4 45 -4c13.333 0 24.333 2 33 6s18.167 14.5 28.5 31.5s18.5 41 24.5 72s11 75.333 15 133s6 127.5 6 209.5v97h538v-700h-194v530h-163v-27c0 -83.333 -3.66699 -155.666 -11 -216.999
s-17.5 -110.833 -30.5 -148.5s-29.5 -67.667 -49.5 -90s-40.833 -37.5 -62.5 -45.5s-47.167 -12 -76.5 -12z" />
    <glyph glyph-name="afii10030" unicode="&#x41c;" horiz-adv-x="868" 
d="M62 0v700h205l167 -271l167 271h205v-700h-193v402l-179 -274h-4l-178 272v-400h-190z" />
    <glyph glyph-name="afii10031" unicode="&#x41d;" horiz-adv-x="761" 
d="M62 0v700h194v-262h249v262h194v-700h-194v266h-249v-266h-194z" />
    <glyph glyph-name="afii10032" unicode="&#x41e;" horiz-adv-x="831" 
d="M414 -14c-107.333 0 -196.833 35.167 -268.5 105.5s-107.5 156.5 -107.5 258.5c0 101.333 36.167 187.333 108.5 258s162.166 106 269.499 106s196.833 -35.167 268.5 -105.5s107.5 -156.5 107.5 -258.5c0 -101.333 -36.167 -187.333 -108.5 -258
s-162.166 -106 -269.499 -106zM416 161c52.667 0 95.5 18.333 128.5 55s49.5 81.334 49.5 134.001c0 52 -17 96.5 -51 133.5s-77 55.5 -129 55.5s-94.5 -18.333 -127.5 -55s-49.5 -81.334 -49.5 -134.001c0 -52 16.833 -96.5 50.5 -133.5s76.5 -55.5 128.5 -55.5z" />
    <glyph glyph-name="afii10033" unicode="&#x41f;" horiz-adv-x="751" 
d="M62 0v700h627v-700h-194v530h-239v-530h-194z" />
    <glyph glyph-name="afii10034" unicode="&#x420;" horiz-adv-x="673" 
d="M62 0l0.000976562 700h300c89.333 0 160.166 -21.833 212.499 -65.5s78.5 -104.5 78.5 -182.5c0 -80 -27.667 -142 -83 -186s-128 -66 -218 -66h-96v-200h-194zM256.001 352l91.999 -0.000976562c34.667 0 61.834 8.33301 81.501 25s29.5 39.334 29.5 68.001
c0 30 -9.83301 52.833 -29.5 68.5s-47.167 23.5 -82.5 23.5h-91v-185z" />
    <glyph glyph-name="afii10035" unicode="&#x421;" horiz-adv-x="730" 
d="M399 -14c-101.333 0 -186.831 34.5 -256.498 103.5s-104.5 155.833 -104.5 260.5c0 102.667 35.167 189 105.5 259s158.166 105 263.499 105c124.667 0 222.667 -49.333 294 -148l-142 -110c-43.333 54 -94.666 81 -153.999 81c-48.667 0 -88.667 -18 -120 -54
s-47 -80.333 -47 -133c0 -53.333 15.667 -97.833 47 -133.5s71.333 -53.5 120 -53.5c34 0 63 7.16699 87 21.5s47.667 35.5 71 63.5l146 -104c-36.667 -50 -79.334 -88.833 -128.001 -116.5s-109.334 -41.5 -182.001 -41.5z" />
    <glyph glyph-name="afii10036" unicode="&#x422;" horiz-adv-x="660" 
d="M233 0v530h-210v170h614v-170h-210v-530h-194z" />
    <glyph glyph-name="afii10037" unicode="&#x423;" horiz-adv-x="736" 
d="M226 -10c-59.333 0 -115.333 15.667 -168 47l76 140c24 -16 50.333 -24 79 -24c23.333 0 43.666 10 60.999 30l-274 517h216l159 -329l150 329h211l-273 -534c-32 -63.333 -66.167 -108.5 -102.5 -135.5s-81.166 -40.5 -134.499 -40.5z" />
    <glyph glyph-name="afii10038" unicode="&#x424;" horiz-adv-x="957" 
d="M381 -30v78c-110.667 0 -197.5 29.167 -260.5 87.5s-94.5 133.833 -94.5 226.5c0 90.667 31.667 164.334 95 221.001s150 85 260 85v62h195v-62c110 0 196.667 -28.333 260 -85s95 -130.334 95 -221.001c0 -92.667 -31.5 -168.167 -94.5 -226.5
s-149.833 -87.5 -260.5 -87.5v-78h-195zM381 220l0.00195312 276c-46.667 0 -84.334 -12.167 -113.001 -36.5s-43 -57.833 -43 -100.5c0 -44 14.167 -78.167 42.5 -102.5s66.166 -36.5 113.499 -36.5zM576.002 220c47.333 0 85.168 12.167 113.501 36.5
s42.5 58.5 42.5 102.5c0 42.667 -14.333 76.167 -43 100.5s-66.334 36.5 -113.001 36.5v-276z" />
    <glyph glyph-name="afii10039" unicode="&#x425;" horiz-adv-x="732" 
d="M11 0l240 356l-230 344h223l124 -197l125 197h218l-230 -342l240 -358h-223l-134 211l-135 -211h-218z" />
    <glyph glyph-name="afii10040" unicode="&#x426;" horiz-adv-x="772" 
d="M582 -140v140h-520v700h194v-530h239v530h194v-530h79l-22 -310h-164z" />
    <glyph glyph-name="afii10041" unicode="&#x427;" horiz-adv-x="711" 
d="M455 0l-0.000976562 245.001c-51.333 -30 -111 -45 -179 -45c-73.333 0 -130.666 20.667 -171.999 62s-62 98.666 -62 171.999v266h194v-211c0 -38 7.5 -65.833 22.5 -83.5s39.5 -26.5 73.5 -26.5c50.667 0 91.667 12.667 123 38v283h194v-700h-194z" />
    <glyph glyph-name="afii10042" unicode="&#x428;" horiz-adv-x="1104" 
d="M62 0v700h194v-530h199v530h194v-530h199v530h194v-700h-980z" />
    <glyph glyph-name="afii10043" unicode="&#x429;" horiz-adv-x="1125" 
d="M935 -140v140h-873v700h194v-530h199v530h194v-530h199v530h194v-530h79l-22 -310h-164z" />
    <glyph glyph-name="afii10044" unicode="&#x42a;" horiz-adv-x="790" 
d="M179 0l0.000976562 530h-159v170h353v-220h106c87.333 0 157.666 -20.5 210.999 -61.5s80 -99.833 80 -176.5c0 -75.333 -25.333 -134.5 -76 -177.5s-119 -64.5 -205 -64.5h-310zM373.001 163h100.999c32.667 0 57.834 7.16699 75.501 21.5s26.5 35.166 26.5 62.499
c0 24.667 -9 44.334 -27 59.001s-42.667 22 -74 22h-102v-165z" />
    <glyph glyph-name="afii10045" unicode="&#x42b;" horiz-adv-x="991" 
d="M62 0l0.000976562 700h194v-220h106c87.333 0 157.666 -20.5 210.999 -61.5s80 -99.833 80 -176.5c0 -75.333 -25.333 -134.5 -76 -177.5s-119 -64.5 -205 -64.5h-310zM256.001 163h100.999c32.667 0 57.834 7.16699 75.501 21.5s26.5 35.166 26.5 62.499
c0 24.667 -9 44.334 -27 59.001s-42.667 22 -74 22h-102v-165zM735 0v700h194v-700h-194z" />
    <glyph glyph-name="afii10046" unicode="&#x42c;" horiz-adv-x="673" 
d="M62 0l0.000976562 700h194v-220h106c87.333 0 157.666 -20.5 210.999 -61.5s80 -99.833 80 -176.5c0 -75.333 -25.333 -134.5 -76 -177.5s-119 -64.5 -205 -64.5h-310zM256.001 163h100.999c32.667 0 57.834 7.16699 75.501 21.5s26.5 35.166 26.5 62.499
c0 24.667 -9 44.334 -27 59.001s-42.667 22 -74 22h-102v-165z" />
    <glyph glyph-name="afii10047" unicode="&#x42d;" horiz-adv-x="730" 
d="M330 -14c-126.667 0 -227.332 49.333 -301.999 148l141 100c45.333 -50.667 97 -76 155 -76c39.333 0 73.333 11.667 102 35s48.667 54 60 92h-229v137h227c-12.667 35.333 -33 64 -61 86s-61 33 -99 33c-60 0 -110.667 -23.333 -152 -70l-131 112
c72 87.333 165.667 131 281 131c105.333 0 193.166 -35 263.499 -105s105.5 -156.333 105.5 -259c0 -104.667 -34.833 -191.5 -104.5 -260.5s-155.167 -103.5 -256.5 -103.5z" />
    <glyph glyph-name="afii10048" unicode="&#x42e;" horiz-adv-x="1080" 
d="M684 -14c-88 0 -163.501 26.166 -226.501 78.499s-103.167 119.5 -120.5 201.5h-81v-266h-194v700h194v-262h82c18.667 80.667 59.5 146.834 122.5 198.501s138.167 77.5 225.5 77.5c103.333 0 188.333 -35 255 -105s100 -156.333 100 -259
c0 -101.333 -33.667 -187.333 -101 -258s-152.666 -106 -255.999 -106zM685.999 159.999c46.667 0 84.666 18 113.999 54s44 81.333 44 136c0 53.333 -15 98.333 -45 135s-68.333 55 -115 55s-84.5 -18.167 -113.5 -54.5s-43.5 -81.5 -43.5 -135.5
c0 -53.333 14.833 -98.333 44.5 -135s67.834 -55 114.501 -55z" />
    <glyph glyph-name="afii10049" unicode="&#x42f;" horiz-adv-x="736" 
d="M30 0l167 244c-96 40.667 -144 113 -144 217c0 78 27.167 137.333 81.5 178s123.833 61 208.5 61h331v-700h-194v212h-85l-141 -212h-224zM352 361h128.001v174h-127c-32.667 0 -58.334 -7.66699 -77.001 -23s-28 -37 -28 -65c0 -26 9.16699 -46.833 27.5 -62.5
s43.833 -23.5 76.5 -23.5z" />
    <glyph glyph-name="afii10065" unicode="&#x430;" horiz-adv-x="599" 
d="M206 -12c-53.333 0 -96.998 14.833 -130.998 44.5s-51 71.167 -51 124.5c0 54.667 19 96.667 57 126s89.667 44 155 44c47.333 0 90.666 -7 129.999 -21v9c0 58.667 -36 88 -108 88c-48.667 0 -98.334 -10 -149.001 -30l-39 134c68 28 141 42 219 42
c93.333 0 162 -22 206 -66c38.667 -38 58 -95.333 58 -172v-311h-188v56c-40.667 -45.333 -93.667 -68 -159 -68zM274.002 107c28 0 50.666 8.16602 67.999 24.499s26 37.833 26 64.5v25c-22 9.33301 -46.667 14 -74 14s-48.666 -6.16699 -63.999 -18.5
s-23 -29.166 -23 -50.499c0 -18 6.16699 -32.333 18.5 -43s28.5 -16 48.5 -16z" />
    <glyph glyph-name="afii10066" unicode="&#x431;" horiz-adv-x="656" 
d="M337 -13c-192.667 0 -289.002 111.668 -289.002 335.001c0 35.333 1.5 67.333 4.5 96s9.5 59.167 19.5 91.5s23.5 60 40.5 83s40.5 43.5 70.5 61.5s65.333 30.333 106 37l276 45l23 -147l-284 -52c-29.333 -5.33301 -53.666 -15.5 -72.999 -30.5s-32 -28.833 -38 -41.5
s-9.33301 -25 -10 -37c10 16.667 31.5 34.167 64.5 52.5s73.5 27.5 121.5 27.5c70.667 0 131.334 -22.833 182.001 -68.5s76 -104.834 76 -177.501c0 -76.667 -27.667 -141.667 -83 -195s-124.333 -80 -207 -80zM338.998 148.001c30.667 0 55.5 10.667 74.5 32
s28.5 48 28.5 80c0 30.667 -10 57 -30 79s-45 33 -75 33c-30.667 0 -55.5 -10.667 -74.5 -32s-28.5 -48 -28.5 -80c0 -30.667 10 -57 30 -79s45 -33 75 -33z" />
    <glyph glyph-name="afii10067" unicode="&#x432;" horiz-adv-x="609" 
d="M51 0v541h321c66 0 115.333 -16.333 148 -49c23.333 -22 35 -51.333 35 -88c0 -56 -28 -96.333 -84 -121c34.667 -11.333 60.5 -27.5 77.5 -48.5s25.5 -49.5 25.5 -85.5c0 -46.667 -18 -83.167 -54 -109.5s-86.333 -39.5 -151 -39.5h-318zM236 123h77.999
c22 0 39.167 4.5 51.5 13.5s18.5 21.5 18.5 37.5c0 14.667 -6.16699 26.667 -18.5 36s-30.166 14 -53.499 14h-76v-101zM235.999 326l64 -0.000976562c21.333 0 38 4.33301 50 13s18 20.334 18 35.001c0 14 -5.66699 25.167 -17 33.5s-27.333 12.5 -48 12.5h-67v-94z" />
    <glyph glyph-name="afii10068" unicode="&#x433;" horiz-adv-x="469" 
d="M51 0v541h408v-153h-218v-388h-190z" />
    <glyph glyph-name="afii10069" unicode="&#x434;" horiz-adv-x="653" 
d="M10 -110l-0.000976562 263h50c16.667 48 28.834 98.333 36.501 151s11.5 123 11.5 211v26h482v-388h63l-18 -263h-162v110h-283l-10 -110h-170zM253.999 153h145v237h-110v-9c-2 -80 -13.667 -156 -35 -228z" />
    <glyph glyph-name="afii10070" unicode="&#x435;" horiz-adv-x="605" 
d="M319 -13c-85.333 0 -155 26 -209 78s-81 120.333 -81 205c0 80 25.667 147.167 77 201.5s116.666 81.5 195.999 81.5c88.667 0 156.334 -28 203.001 -84s70 -126.667 70 -212c0 -17.333 -0.333008 -30.333 -1 -39h-362c15.333 -59.333 54.333 -89 117 -89
c42.667 0 82.667 18.333 120 55l105 -87c-58 -73.333 -136.333 -110 -235 -110zM209 315h187.999c-3.33301 30 -13.333 53.833 -30 71.5s-38 26.5 -64 26.5c-24.667 0 -45.167 -8.83301 -61.5 -26.5s-27.166 -41.5 -32.499 -71.5z" />
    <glyph glyph-name="afii10072" unicode="&#x436;" horiz-adv-x="914" 
d="M-5 0l190 319l-185 222h215l147 -201v201h190v-201l147 201h215l-186 -222l191 -319h-209l-110 185l-48 -58v-127h-190v127l-49 58l-109 -185h-209z" />
    <glyph glyph-name="afii10073" unicode="&#x437;" horiz-adv-x="543" 
d="M244 -14c-54 0 -98.166 5.49707 -132.499 16.4971s-69.833 30.5 -106.5 58.5l75 118c20.667 -16 47.167 -29 79.5 -39s59.833 -15 82.5 -15c51.333 0 77 14.333 77 43c0 30 -25 45 -75 45h-68v119h67c42 0 63 15.333 63 46c0 10 -5.66699 18.667 -17 26
s-27.333 11 -48 11c-24 0 -50 -5.16699 -78 -15.5s-50.667 -23.166 -68 -38.499l-76 104c63.333 58.667 145.333 88 246 88c72 0 128 -13.667 168 -41s60 -62.666 60 -105.999c0 -57.333 -28.667 -98.333 -86 -123c67.333 -23.333 101 -65.333 101 -126
c0 -51.333 -21.833 -92.666 -65.5 -123.999s-109.834 -47 -198.501 -47z" />
    <glyph glyph-name="afii10074" unicode="&#x438;" horiz-adv-x="641" 
d="M51 0v541h184v-271l180 271h175v-541h-184v271l-180 -271h-175z" />
    <glyph glyph-name="afii10075" unicode="&#x439;" horiz-adv-x="641" 
d="M51 0v541h184v-271l180 271h175v-541h-184v271l-180 -271h-175zM325 585c-45.333 0 -82.5 13 -111.5 39s-46.833 62.667 -53.5 110l99 18c13.333 -38.667 35.333 -58 66 -58s52.667 19.333 66 58l99 -18c-6.66699 -47.333 -24.5 -84 -53.5 -110s-66.167 -39 -111.5 -39z
" />
    <glyph glyph-name="afii10076" unicode="&#x43a;" horiz-adv-x="603" 
d="M51 0v541h190v-201l147 201h215l-185 -222l190 -319h-209l-103 173l-55 -66v-107h-190z" />
    <glyph glyph-name="afii10077" unicode="&#x43b;" horiz-adv-x="638" 
d="M94 -7c-25.333 0 -53.333 2.66602 -84 7.99902l8 147c14 -2 24.333 -3 31 -3c8.66699 0 15.667 1.16699 21 3.5s11.5 8.83301 18.5 19.5s12.5 26 16.5 46s7.5 48.833 10.5 86.5s4.5 83.167 4.5 136.5v104h467v-541h-190v390h-100v-14c0 -64 -3.5 -119.167 -10.5 -165.5
s-16.167 -83.333 -27.5 -111s-26 -49.667 -44 -66s-36.333 -27.166 -55 -32.499s-40.667 -8 -66 -8z" />
    <glyph glyph-name="afii10078" unicode="&#x43c;" horiz-adv-x="739" 
d="M51 0v541h193l125 -187l126 187h193v-541h-190v267l-132 -184l-128 180v-263h-187z" />
    <glyph glyph-name="afii10079" unicode="&#x43d;" horiz-adv-x="638" 
d="M51 0v541h190v-192h156v192h190v-541h-190v196h-156v-196h-190z" />
    <glyph glyph-name="afii10080" unicode="&#x43e;" horiz-adv-x="656" 
d="M327 -13c-85.333 0 -156.333 27.5 -213 82.5s-85 121.833 -85 200.5c0 78 28.5 144.667 85.5 200s128.5 83 214.5 83c85.333 0 156.333 -27.5 213 -82.5s85 -121.833 85 -200.5c0 -78 -28.5 -144.667 -85.5 -200s-128.5 -83 -214.5 -83zM329 148
c34 0 61.333 11.667 82 35s31 52.333 31 87c0 33.333 -11 62 -33 86s-49.333 36 -82 36c-34 0 -61.333 -11.667 -82 -35s-31 -52.333 -31 -87c0 -33.333 11 -62 33 -86s49.333 -36 82 -36z" />
    <glyph glyph-name="afii10081" unicode="&#x43f;" horiz-adv-x="630" 
d="M51 0v541h528v-541h-190v388h-148v-388h-190z" />
    <glyph glyph-name="afii10082" unicode="&#x440;" horiz-adv-x="676" 
d="M51 -160l-0.000976562 701.001h190v-72c46 56 100.667 84 164 84c66.667 0 123.334 -25.833 170.001 -77.5s70 -119.834 70 -204.501c0 -85.333 -23.167 -153.833 -69.5 -205.5s-102.833 -77.5 -169.5 -77.5c-65.333 0 -120.333 26 -165 78v-226h-190zM346.999 147.001
c31.333 0 57.666 11.666 78.999 34.999s32 53.333 32 90c0 35.333 -10.667 64.5 -32 87.5s-47.666 34.5 -78.999 34.5c-30.667 0 -56.667 -11.667 -78 -35s-32 -53 -32 -89c0 -35.333 10.667 -64.666 32 -87.999s47.333 -35 78 -35z" />
    <glyph glyph-name="afii10083" unicode="&#x441;" horiz-adv-x="569" 
d="M312 -13c-80.667 0 -148 27.5 -202 82.5s-81 121.833 -81 200.5c0 78 27.333 144.5 82 199.5s124 82.5 208 82.5c103.333 0 180.333 -40.333 231 -121l-127 -92c-25.333 35.333 -58 53 -98 53c-34 0 -61 -11.667 -81 -35s-30 -52.333 -30 -87
c0 -35.333 10 -64.666 30 -87.999s46 -35 78 -35c21.333 0 39.5 4.66699 54.5 14s30.833 23.666 47.5 42.999l129 -93c-56 -82.667 -136.333 -124 -241 -124z" />
    <glyph glyph-name="afii10084" unicode="&#x442;" horiz-adv-x="526" 
d="M168 0v388h-158v153h506v-153h-158v-388h-190z" />
    <glyph glyph-name="afii10085" unicode="&#x443;" horiz-adv-x="626" 
d="M211 -163c-60 0 -118.001 15.667 -174.001 47l59 133c32 -19.333 59.667 -29 83 -29c18.667 0 33.334 7.33301 44.001 22l-212 531h199l108 -326l102 326h195l-198 -528c-24 -64 -51 -109.333 -81 -136s-71.667 -40 -125 -40z" />
    <glyph glyph-name="afii10086" unicode="&#x444;" horiz-adv-x="898" 
d="M354 -160l-0.00195312 185.001c-34.667 -22.667 -69.667 -34 -105 -34c-65.333 0 -118.166 25.167 -158.499 75.5s-60.5 119.166 -60.5 206.499c0 85.333 20.333 152.833 61 202.5s93.667 74.5 159 74.5c36 0 70.667 -13 104 -39v189h190v-189c32 26 66.667 39 104 39
c65.333 0 118.333 -25 159 -75s61 -118 61 -204c0 -86.667 -20.167 -155 -60.5 -205s-93.166 -75 -158.499 -75c-36.667 0 -71.667 11.333 -105 34v-185h-190zM307.998 144.001c17.333 0 32.667 3.33301 46 10v232c-14.667 7.33301 -30 11 -46 11
c-30 0 -52.667 -11.667 -68 -35s-23 -54 -23 -92s7.66699 -68.5 23 -91.5s38 -34.5 68 -34.5zM589.999 144.001c30 0 52.668 11.5 68.001 34.5s23 54.167 23 93.5c0 37.333 -7.66699 67.5 -23 90.5s-38 34.5 -68 34.5c-16 0 -31.333 -3.66699 -46 -11v-232
c13.333 -6.66699 28.666 -10 45.999 -10z" />
    <glyph glyph-name="afii10087" unicode="&#x445;" horiz-adv-x="589" 
d="M8 0l182 273l-179 268h205l80 -133l80 133h201l-178 -267l182 -274h-204l-84 139l-85 -139h-200z" />
    <glyph glyph-name="afii10088" unicode="&#x446;" horiz-adv-x="642" 
d="M462 -110v110h-411v541h190v-388h148v388h190v-388h63l-18 -263h-162z" />
    <glyph glyph-name="afii10089" unicode="&#x447;" horiz-adv-x="613" 
d="M372 0l0.000976562 174c-35.333 -16 -80 -24 -134 -24c-56.667 0 -102.834 16 -138.501 48s-53.5 76.333 -53.5 133v210h191v-153c0 -55.333 19 -83 57 -83c33.333 0 59.333 7 78 21v215h190v-541h-190z" />
    <glyph glyph-name="afii10090" unicode="&#x448;" horiz-adv-x="938" 
d="M51 0v541h190v-388h133v388h190v-388h133v388h190v-541h-836z" />
    <glyph glyph-name="afii10091" unicode="&#x449;" horiz-adv-x="950" 
d="M770 -110v110h-719v541h190v-388h133v388h190v-388h133v388h190v-388h63l-18 -263h-162z" />
    <glyph glyph-name="afii10092" unicode="&#x44a;" horiz-adv-x="661" 
d="M136 0v388h-131v153h321v-170h92c66.667 0 120.5 -15.833 161.5 -47.5s61.5 -77.167 61.5 -136.5c0 -58 -19.333 -103.667 -58 -137s-91 -50 -157 -50h-290zM326 134h59c48.667 0 73 19.667 73 59c0 17.333 -6.5 31 -19.5 41s-30.833 15 -53.5 15h-59v-115z" />
    <glyph glyph-name="afii10093" unicode="&#x44b;" horiz-adv-x="858" 
d="M617 0v541h190v-541h-190zM51 0v541h190v-170h92c66.667 0 120.5 -15.833 161.5 -47.5s61.5 -77.167 61.5 -136.5c0 -58 -19.333 -103.667 -58 -137s-91 -50 -157 -50h-290zM241 134h59c48.667 0 73 19.667 73 59c0 17.333 -6.5 31 -19.5 41s-30.833 15 -53.5 15h-59
v-115z" />
    <glyph glyph-name="afii10094" unicode="&#x44c;" horiz-adv-x="576" 
d="M51 0v541h190v-170h92c66.667 0 120.5 -15.833 161.5 -47.5s61.5 -77.167 61.5 -136.5c0 -58 -19.333 -103.667 -58 -137s-91 -50 -157 -50h-290zM241 134h59c48.667 0 73 19.667 73 59c0 17.333 -6.5 31 -19.5 41s-30.833 15 -53.5 15h-59v-115z" />
    <glyph glyph-name="afii10095" unicode="&#x44d;" horiz-adv-x="558" 
d="M246 -13c-101.333 0 -180.001 39.001 -236.001 117.001l118 87c32.667 -36 68.667 -54 108 -54c25.333 0 47.5 7 66.5 21s32.833 33 41.5 57h-146v109h146c-8.66699 23.333 -22.5 42.166 -41.5 56.499s-40.5 21.5 -64.5 21.5c-45.333 0 -82 -18 -110 -54l-113 93
c50.667 74 125.334 111 224.001 111c84 0 153.333 -27.5 208 -82.5s82 -121.5 82 -199.5c0 -78.667 -27 -145.5 -81 -200.5s-121.333 -82.5 -202 -82.5z" />
    <glyph glyph-name="afii10096" unicode="&#x44e;" horiz-adv-x="904" 
d="M586 -13c-71.333 0 -131.666 19.668 -180.999 59.001s-82 90.666 -98 153.999h-66v-200h-190v541h190v-196h68c17.333 61.333 50.666 111.333 99.999 150s109 58 179 58c84.667 0 153.667 -27.167 207 -81.5s80 -121.5 80 -201.5c0 -78.667 -26.833 -145.5 -80.5 -200.5
s-123.167 -82.5 -208.5 -82.5zM588 148.001c33.333 0 58.666 11.5 75.999 34.5s26 52.167 26 87.5c0 34.667 -9.33301 63.667 -28 87s-44 35 -76 35c-33.333 0 -58.666 -11.5 -75.999 -34.5s-26 -52.167 -26 -87.5c0 -34.667 9.33301 -63.667 28 -87s44 -35 76 -35z" />
    <glyph glyph-name="afii10097" unicode="&#x44f;" horiz-adv-x="619" 
d="M13 0l127 188c-66.667 32 -100 86.667 -100 164c0 54.667 16.667 97.667 50 129c38 40 97 60 177 60h301v-541h-191v156h-43l-104 -156h-217zM302 288h75v110h-75c-46.667 0 -70 -18.667 -70 -56c0 -36 23.333 -54 70 -54z" />
    <glyph glyph-name="afii10071" unicode="&#x451;" horiz-adv-x="605" 
d="M319 -13c-85.333 0 -155 26 -209 78s-81 120.333 -81 205c0 80 25.667 147.167 77 201.5s116.666 81.5 195.999 81.5c88.667 0 156.334 -28 203.001 -84s70 -126.667 70 -212c0 -17.333 -0.333008 -30.333 -1 -39h-362c15.333 -59.333 54.333 -89 117 -89
c42.667 0 82.667 18.333 120 55l105 -87c-58 -73.333 -136.333 -110 -235 -110zM209 315h187.999c-3.33301 30 -13.333 53.833 -30 71.5s-38 26.5 -64 26.5c-24.667 0 -45.167 -8.83301 -61.5 -26.5s-27.166 -41.5 -32.499 -71.5zM109.999 587v143h165v-143h-165z
M328.999 587v143h165v-143h-165z" />
    <glyph glyph-name="afii10099" unicode="&#x452;" horiz-adv-x="634" 
d="M403 -14c-40 0 -75.667 4.66699 -107 14l10 153c3.33301 -0.666992 8.33301 -1 15 -1c23.333 0 41.833 8 55.5 24s20.5 38.333 20.5 67s-6.83301 51 -20.5 67s-32.167 24 -55.5 24c-24 0 -43.333 -8 -58 -24s-22 -38.333 -22 -67v-243h-190v541h-63v128h63v61h190v-61
h157v-128h-157v-124c44.667 57.333 98.667 86 162 86c57.333 0 102.333 -17.833 135 -53.5s49 -84.167 49 -145.5v-119c0 -62 -16.333 -110.667 -49 -146s-77.667 -53 -135 -53z" />
    <glyph glyph-name="afii10100" unicode="&#x453;" horiz-adv-x="469" 
d="M51 0v541h408v-153h-218v-388h-190zM144 587l104 185l177 -57l-147 -128h-134z" />
    <glyph glyph-name="afii10101" unicode="&#x454;" horiz-adv-x="558" 
d="M312 -13c-80.667 0 -147.999 27.499 -201.999 82.499s-81 121.833 -81 200.5c0 78 27.333 144.5 82 199.5s124 82.5 208 82.5c98.667 0 173.334 -37 224.001 -111l-113 -93c-28 36 -64.667 54 -110 54c-24.667 0 -46.334 -7.16699 -65.001 -21.5
s-32.667 -33.166 -42 -56.499h147v-109h-147c8.66699 -24 22.667 -43 42 -57s41.666 -21 66.999 -21c39.333 0 75.333 18 108 54l118 -87c-56 -78 -134.667 -117 -236 -117z" />
    <glyph glyph-name="afii10102" unicode="&#x455;" horiz-adv-x="514" 
d="M266 -12c-96.667 0 -181.999 26.666 -255.999 79.999l71 115c62.667 -41.333 124.667 -62 186 -62c32 0 48 10.333 48 31c0 10 -6.5 18 -19.5 24s-35.5 13.333 -67.5 22c-63.333 17.333 -111.166 38.166 -143.499 62.499s-48.5 61.833 -48.5 112.5
c0 56 20.167 99.833 60.5 131.5s92.5 47.5 156.5 47.5c83.333 0 157.666 -21 222.999 -63l-65 -120c-60 33.333 -113.333 50 -160 50c-29.333 0 -44 -9.33301 -44 -28c0 -9.33301 6.33301 -17.166 19 -23.499s35.667 -14.5 69 -24.5c30.667 -8.66699 56 -17.167 76 -25.5
s39.667 -19.166 59 -32.499s33.666 -29.5 42.999 -48.5s14 -41.5 14 -67.5c0 -58 -20 -102.667 -60 -134s-93.667 -47 -161 -47z" />
    <glyph glyph-name="afii10103" unicode="&#x456;" horiz-adv-x="300" 
d="M55 0v541h190v-541h-190zM51 590v140h198v-140h-198z" />
    <glyph glyph-name="afii10104" unicode="&#x457;" horiz-adv-x="300" 
d="M-42 587v143h165v-143h-165zM177 587v143h165v-143h-165zM55 0v541h190v-541h-190z" />
    <glyph glyph-name="afii10105" unicode="&#x458;" horiz-adv-x="302" 
d="M52 -163c-16 0 -41.999 2.33203 -77.999 6.99902v126c5.33301 -0.666992 13.666 -1 24.999 -1c19.333 0 33.5 4.83301 42.5 14.5s13.5 25.834 13.5 48.501v509h190v-517c0 -66 -16.167 -113.667 -48.5 -143s-80.5 -44 -144.5 -44zM51.001 589.999v140h198v-140h-198z" />
    <glyph glyph-name="afii10106" unicode="&#x459;" horiz-adv-x="922" 
d="M397 0v389.999h-100v-14c0 -64 -3.5 -119.167 -10.5 -165.5s-16.167 -83.333 -27.5 -111s-26 -49.667 -44 -66s-36.333 -27.166 -55 -32.499s-40.667 -8 -66 -8s-53.333 2.66699 -84 8l8 147c14 -2 24.333 -3 31 -3c8.66699 0 15.667 1.16699 21 3.5
s11.5 8.83301 18.5 19.5s12.5 26 16.5 46s7.5 48.833 10.5 86.5s4.5 83.167 4.5 136.5v104h467v-170h92c66.667 0 120.5 -15.833 161.5 -47.5s61.5 -77.167 61.5 -136.5c0 -58 -19.333 -103.667 -58 -137s-91 -50 -157 -50h-290zM587 133.999h59c48.667 0 73 19.667 73 59
c0 17.333 -6.5 31 -19.5 41s-30.833 15 -53.5 15h-59v-115z" />
    <glyph glyph-name="afii10107" unicode="&#x45a;" horiz-adv-x="922" 
d="M51 0l-0.000976562 541.001h190v-172h156v172h190v-172h87c68.667 0 123.834 -15.5 165.501 -46.5s62.5 -76.5 62.5 -136.5c0 -58.667 -19.667 -104.334 -59 -137.001s-93 -49 -161 -49h-285v226h-156v-226h-190zM586.999 136.001h59c48.667 0 73 18 73 54
c0 34 -24.333 51 -73 51h-59v-105z" />
    <glyph glyph-name="afii10108" unicode="&#x45b;" horiz-adv-x="634" 
d="M51 0v541h-63v128h63v61h190v-61h157v-128h-157v-124c44.667 57.333 98.667 86 162 86c57.333 0 102.333 -17.833 135 -53.5s49 -84.167 49 -145.5v-304h-190v243c0 28.667 -6.83301 51 -20.5 67s-32.167 24 -55.5 24c-24 0 -43.333 -8 -58 -24s-22 -38.333 -22 -67v-243
h-190z" />
    <glyph glyph-name="afii10109" unicode="&#x45c;" horiz-adv-x="603" 
d="M51 0v541h190v-201l147 201h215l-185 -222l190 -319h-209l-103 173l-55 -66v-107h-190zM211 587l104 185l177 -57l-147 -128h-134z" />
    <glyph glyph-name="afii10110" unicode="&#x45e;" horiz-adv-x="626" 
d="M211 -163c-60 0 -118.001 15.667 -174.001 47l59 133c32 -19.333 59.667 -29 83 -29c18.667 0 33.334 7.33301 44.001 22l-212 531h199l108 -326l102 326h195l-198 -528c-24 -64 -51 -109.333 -81 -136s-71.667 -40 -125 -40zM317.999 585c-45.333 0 -82.5 13 -111.5 39
s-46.833 62.667 -53.5 110l99 18c13.333 -38.667 35.333 -58 66 -58s52.667 19.333 66 58l99 -18c-6.66699 -47.333 -24.5 -84 -53.5 -110s-66.167 -39 -111.5 -39z" />
    <glyph glyph-name="afii10193" unicode="&#x45f;" horiz-adv-x="630" 
d="M224 -110v110h-173v541h190v-388h148v388h190v-541h-175v-110h-180z" />
    <glyph glyph-name="afii10050" unicode="&#x490;" horiz-adv-x="586" 
d="M62 0v700h318v140h164l22 -310h-310v-530h-194z" />
    <glyph glyph-name="afii10098" unicode="&#x491;" horiz-adv-x="469" 
d="M51 0v541h228v110h162l18 -263h-218v-388h-190z" />
    <glyph glyph-name="endash" unicode="&#x2013;" horiz-adv-x="528" 
d="M40 231v163h448v-163h-448z" />
    <glyph glyph-name="emdash" unicode="&#x2014;" horiz-adv-x="898" 
d="M40 231v163h818v-163h-818z" />
    <glyph glyph-name="quoteleft" unicode="&#x2018;" horiz-adv-x="284" 
d="M40 343v159c0 70.667 17.5 121.667 52.5 153s85.833 48 152.5 50l16 -73c-66.667 -8 -100 -37.333 -100 -88v-6h76v-195h-197z" />
    <glyph glyph-name="quoteright" unicode="&#x2019;" horiz-adv-x="284" 
d="M39 338l-16 73.001c66.667 7.33301 100 36.666 100 87.999v6h-76v195h197v-159c0 -70.667 -17.5 -121.667 -52.5 -153s-85.833 -48 -152.5 -50z" />
    <glyph glyph-name="quotesinglbase" unicode="&#x201a;" horiz-adv-x="284" 
d="M35 -167l-15 73c66.667 8 100 38 100 90v4h-77v195h198v-159c0 -70.667 -17.667 -121.667 -53 -153s-86.333 -48 -153 -50z" />
    <glyph glyph-name="quotedblleft" unicode="&#x201c;" horiz-adv-x="547" 
d="M40 343v159c0 69.333 17.333 120 52 152s85 49 151 51l15 -73c-64.667 -8 -97 -37 -97 -87v-7h74v-195h-195zM305 343v159c0 69.333 17.5 120 52.5 152s85.167 49 150.5 51l16 -73c-65.333 -8 -98 -37.667 -98 -89v-5h74v-195h-195z" />
    <glyph glyph-name="quotedblright" unicode="&#x201d;" horiz-adv-x="547" 
d="M39 338l-16 73c65.333 7.33301 98 37 98 89v5h-74v195h195v-159c0 -70 -17.333 -120.833 -52 -152.5s-85 -48.5 -151 -50.5zM305 338l-16 73c65.333 7.33301 98 37 98 89v5h-75v195h195v-159c0 -70 -17.333 -120.833 -52 -152.5s-84.667 -48.5 -150 -50.5z" />
    <glyph glyph-name="quotedblbase" unicode="&#x201e;" horiz-adv-x="546" 
d="M35 -167l-15 73c64.667 8 97 37 97 87v7h-74v195h195v-159c0 -70 -17.333 -120.833 -52 -152.5s-85 -48.5 -151 -50.5zM301 -167l-15 73c64.667 8 97 37 97 87v7h-74v195h195v-159c0 -70 -17.333 -120.833 -52 -152.5s-85 -48.5 -151 -50.5z" />
    <glyph glyph-name="dagger" unicode="&#x2020;" horiz-adv-x="410" 
d="M155 223l10 270l-125 -13v104l124 -13l-15 129h112l-15 -129l124 13v-104l-125 13l10 -270h-100z" />
    <glyph glyph-name="daggerdbl" unicode="&#x2021;" horiz-adv-x="430" 
d="M159 0l15 129l-124 -13v104l126 -13l-13 143l13 143l-126 -13v104l124 -13l-15 129h112l-15 -129l124 13v-104l-126 13l13 -143l-13 -143l126 13v-104l-124 13l15 -129h-112z" />
    <glyph glyph-name="bullet" unicode="&#x2022;" 
d="M250 183c-46.667 0 -86.5 16.5 -119.5 49.5s-49.5 73.167 -49.5 120.5c0 46.667 16.5 86.334 49.5 119.001s72.833 49 119.5 49s86.5 -16.5 119.5 -49.5s49.5 -73.167 49.5 -120.5c0 -46.667 -16.5 -86.334 -49.5 -119.001s-72.833 -49 -119.5 -49z" />
    <glyph glyph-name="ellipsis" unicode="&#x2026;" horiz-adv-x="840" 
d="M43 0v192h194v-192h-194zM323 0v192h194v-192h-194zM603 0v192h194v-192h-194z" />
    <glyph glyph-name="perthousand" unicode="&#x2030;" horiz-adv-x="1295" 
d="M112 0l540 700h135l-540 -700h-135zM683 -10c-52.667 0 -95.832 18.167 -129.499 54.5s-50.5 81.166 -50.5 134.499c0 52.667 16.667 97.167 50 133.5s77 54.5 131 54.5c53.333 0 96.666 -18.167 129.999 -54.5s50 -81.166 50 -134.499c0 -52 -17 -96.333 -51 -133
s-77.333 -55 -130 -55zM684.002 100c16.667 0 30.5 7.33203 41.5 21.999s16.5 33.667 16.5 57c0 22.667 -5.5 41.334 -16.5 56.001s-25.167 22 -42.5 22c-18 0 -32.167 -7.16699 -42.5 -21.5s-15.5 -33.5 -15.5 -57.5c0 -22 5.66699 -40.5 17 -55.5s25.333 -22.5 42 -22.5z
M1079 -10.001c-52.667 0 -95.832 18.167 -129.499 54.5s-50.5 81.166 -50.5 134.499c0 52.667 16.667 97.167 50 133.5s77 54.5 131 54.5c53.333 0 96.666 -18.167 129.999 -54.5s50 -81.166 50 -134.499c0 -52 -17 -96.333 -51 -133s-77.333 -55 -130 -55zM1080 99.999
c16.667 0 30.5 7.33203 41.5 21.999s16.5 33.667 16.5 57c0 22.667 -5.5 41.334 -16.5 56.001s-25.167 22 -42.5 22c-18 0 -32.167 -7.16699 -42.5 -21.5s-15.5 -33.5 -15.5 -57.5c0 -22 5.66699 -40.5 17 -55.5s25.333 -22.5 42 -22.5zM215.004 332.998
c-53.333 0 -96.666 18.167 -129.999 54.5s-50 81.166 -50 134.499c0 52.667 16.667 97.167 50 133.5s77 54.5 131 54.5c53.333 0 96.666 -18.167 129.999 -54.5s50 -81.166 50 -134.499c0 -52.667 -17 -97.167 -51 -133.5s-77.333 -54.5 -130 -54.5zM216.004 442.998
c16.667 0 30.5 7.33398 41.5 22.001s16.5 33.667 16.5 57c0 22 -5.66699 40.5 -17 55.5s-25.333 22.5 -42 22.5c-17.333 0 -31.333 -7.33301 -42 -22s-16 -33.667 -16 -57c0 -22.667 5.66699 -41.334 17 -56.001s25.333 -22 42 -22z" />
    <glyph glyph-name="guilsinglleft" unicode="&#x2039;" horiz-adv-x="357" 
d="M190 30l-160 214v48l160 214l137 -67l-130 -171l130 -170z" />
    <glyph glyph-name="guilsinglright" unicode="&#x203a;" horiz-adv-x="357" 
d="M167 30l-137 67l130 171l-130 170l137 68l160 -214v-48z" />
    <glyph glyph-name="fraction" unicode="&#x2044;" horiz-adv-x="501" 
d="M-73 -98l466 856h158l-465 -856h-159z" />
    <glyph glyph-name="Euro" unicode="&#x20ac;" horiz-adv-x="682" 
d="M421 -14c-78.667 0 -144.498 21.499 -197.498 64.499s-88.167 100.5 -105.5 172.5h-81v104h68c-0.666992 4.66699 -1 12.334 -1 23.001c0 12 0.333008 21 1 27h-68v104h84c18.667 68.667 54.167 124.667 106.5 168s117.166 65 194.499 65
c101.333 0 181.333 -37.667 240 -113l-123 -115c-32.667 41.333 -71.334 62 -116.001 62c-50.667 0 -87 -23.333 -109 -70h156v-101h-178c-0.666992 -5.33301 -1 -14.333 -1 -27c0 -10 0.333008 -17.667 1 -23h178v-101h-158c23.333 -49.333 61.666 -74 114.999 -74
c42.667 0 82 22 118 66l120 -113c-61.333 -79.333 -142.666 -119 -243.999 -119z" />
    <glyph glyph-name="afii61352" unicode="&#x2116;" horiz-adv-x="1098" 
d="M62 0v700h181l218 -350v350h202v-700h-170l-229 364v-364h-202zM746 110v117h302v-117h-302zM896 273c-47.333 0 -85.833 16.167 -115.5 48.5s-44.5 71.833 -44.5 118.5c0 48 14.833 88.333 44.5 121s68.5 49 116.5 49c47.333 0 85.833 -16.167 115.5 -48.5
s44.5 -71.833 44.5 -118.5c0 -48 -15 -88.333 -45 -121s-68.667 -49 -116 -49zM897 371c14.667 0 26.667 6.66699 36 20s14 30.333 14 51c0 19.333 -4.83301 35.833 -14.5 49.5s-21.834 20.5 -36.501 20.5s-26.667 -6.66699 -36 -20s-14 -30.333 -14 -51
c0 -20 4.83301 -36.667 14.5 -50s21.834 -20 36.501 -20z" />
    <glyph glyph-name="published" unicode="&#x2117;" horiz-adv-x="830" 
d="M414 -14c-100.667 0 -186 35.667 -256 107s-105 157 -105 257c0 99.333 35.333 184.833 106 256.5s156.334 107.5 257.001 107.5s186 -35.667 256 -107s105 -157 105 -257c0 -99.333 -35.333 -184.833 -106 -256.5s-156.334 -107.5 -257.001 -107.5zM414 26
c90.667 0 166.834 31.833 228.501 95.5s92.5 140.5 92.5 230.5c0 89.333 -30.667 165.333 -92 228s-137 94 -227 94c-90.667 0 -166.834 -31.833 -228.501 -95.5s-92.5 -140.5 -92.5 -230.5c0 -89.333 30.667 -165.333 92 -228s137 -94 227 -94zM273 164
l0.000976562 384.999h165c49.333 0 88.5 -12.167 117.5 -36.5s43.5 -58.166 43.5 -101.499s-15.333 -77 -46 -101s-70.334 -36 -119.001 -36h-53v-110h-108zM381.001 357.999h49c19.333 0 34.333 4.5 45 13.5s16 21.5 16 37.5c0 33.333 -20.333 50 -61 50h-49v-101z" />
    <glyph glyph-name="trademark" unicode="&#x2122;" horiz-adv-x="695" 
d="M108 392v233h-92v75h270v-75h-92v-233h-86zM334 392v308h91l73 -119l74 119h90v-308h-85v180l-78 -122h-3l-78 122v-180h-84z" />
    <glyph glyph-name="partialdiff" unicode="&#x2202;" 
d="M0 0v700h500v-700h-500zM81 49h339l-170 255zM49 96l171 254l-171 254v-508zM450 96v508l-171 -254zM250 395l170 255h-339z" />
    <glyph glyph-name="Delta" unicode="&#x2206;" horiz-adv-x="760" 
d="M6 0l284 700h180l284 -700h-748zM284 170h196l-98 293z" />
    <glyph glyph-name="product" unicode="&#x220f;" 
d="M0 0v700h500v-700h-500zM81 49h339l-170 255zM49 96l171 254l-171 254v-508zM450 96v508l-171 -254zM250 395l170 255h-339z" />
    <glyph glyph-name="summation" unicode="&#x2211;" 
d="M0 0v700h500v-700h-500zM81 49h339l-170 255zM49 96l171 254l-171 254v-508zM450 96v508l-171 -254zM250 395l170 255h-339z" />
    <glyph glyph-name="minus" unicode="&#x2212;" horiz-adv-x="640" 
d="M74 269v167h491v-167h-491z" />
    <glyph glyph-name="radical" unicode="&#x221a;" horiz-adv-x="596" 
d="M282 -128l-179 351h-106v118h175l96 -185l268 642h134z" />
    <glyph glyph-name="infinity" unicode="&#x221e;" horiz-adv-x="889" 
d="M253 135c-64 0 -114.669 20.667 -152.002 62s-56 94.333 -56 159c0 63.333 18 114.833 54 154.5s85.667 59.5 149 59.5c42.667 0 78.334 -10.5 107.001 -31.5s58.334 -52.5 89.001 -94.5c29.333 42 58.5 73.5 87.5 94.5s65.5 31.5 109.5 31.5
c63.333 0 113 -19.833 149 -59.5s54 -91.167 54 -154.5c0 -64 -18 -116.833 -54 -158.5s-85.667 -62.5 -149 -62.5c-72 0 -137.667 39.333 -197 118c-28 -38 -56.833 -67.167 -86.5 -87.5s-64.5 -30.5 -104.5 -30.5zM249.998 273c40 0 78.333 26.001 115 78.001
c-39.333 54.667 -78 82 -116 82c-22 0 -39.5 -7.83301 -52.5 -23.5s-19.5 -34.834 -19.5 -57.501c0 -23.333 6.5 -42.333 19.5 -57s30.833 -22 53.5 -22zM638.998 273.001c23.333 0 41.332 7.5 53.999 22.5s19 34.167 19 57.5c0 22.667 -7 41.667 -21 57s-32.333 23 -55 23
c-36 0 -73.667 -27.333 -113 -82c36.667 -52 75.334 -78 116.001 -78z" />
    <glyph glyph-name="integral" unicode="&#x222b;" 
d="M0 0v700h500v-700h-500zM81 49h339l-170 255zM49 96l171 254l-171 254v-508zM450 96v508l-171 -254zM250 395l170 255h-339z" />
    <glyph glyph-name="approxequal" unicode="&#x2248;" horiz-adv-x="640" 
d="M135 122l-99 26.001c6 48.667 22.833 92.5 50.5 131.5s62.834 58.5 105.501 58.5c27.333 0 69.666 -9.83301 126.999 -29.5s94.333 -29.5 111 -29.5c32.667 0 55 17.667 67 53l99 -25c-7.33301 -50 -24.166 -94.333 -50.499 -133s-61.5 -58 -105.5 -58
c-26 0 -69.667 10 -131 30s-98.333 30 -111 30c-14 0 -26.833 -5.33301 -38.5 -16s-19.834 -23.334 -24.501 -38.001zM135 373.001l-99 26.001c6 48.667 22.833 92.5 50.5 131.5s62.834 58.5 105.501 58.5c27.333 0 69.666 -9.83301 126.999 -29.5s94.333 -29.5 111 -29.5
c32.667 0 55 17.667 67 53l99 -25c-7.33301 -50 -24.166 -94.333 -50.499 -133s-61.5 -58 -105.5 -58c-26 0 -69.667 10 -131 30s-98.333 30 -111 30c-14 0 -26.833 -5.33301 -38.5 -16s-19.834 -23.334 -24.501 -38.001z" />
    <glyph glyph-name="notequal" unicode="&#x2260;" horiz-adv-x="639" 
d="M230 -11l-138 68l38 77h-56v167h138l50 102h-188v167h270l72 145l137 -68l-38 -77h50v-167h-132l-50 -102h182v-167h-264z" />
    <glyph glyph-name="lessequal" unicode="&#x2264;" horiz-adv-x="640" 
d="M76 -16v157h491v-157h-491zM566 165l-489 168v177l489 168v-177l-327 -79l327 -79v-178z" />
    <glyph glyph-name="greaterequal" unicode="&#x2265;" horiz-adv-x="640" 
d="M77 -16v157h491v-157h-491zM78 165v178l327 79l-327 79v177l489 -168v-177z" />
    <glyph glyph-name="lozenge" unicode="&#x25ca;" horiz-adv-x="640" 
d="M248 -35l-194 391l196 391h140l196 -391l-196 -391h-142zM320 125l104 231l-104 231l-105 -231z" />
    <glyph glyph-name="cyrBreve" unicode="&#xf6d1;" 
d="M250 585c-48 0 -87.501 13.333 -118.501 40s-50.167 64.334 -57.5 113.001l106 19c14.667 -40 38 -60 70 -60c32.667 0 56.334 20 71.001 60l106 -19c-7.33301 -48.667 -26.5 -86.334 -57.5 -113.001s-70.833 -40 -119.5 -40z" />
    <glyph glyph-name="cyrbreve" unicode="&#xf6d4;" 
d="M250 585c-45.333 0 -82.5 13 -111.5 39s-46.833 62.667 -53.5 110l99 18c13.333 -38.667 35.333 -58 66 -58s52.667 19.333 66 58l99 -18c-6.66699 -47.333 -24.5 -84 -53.5 -110s-66.167 -39 -111.5 -39z" />
    <glyph glyph-name="apple" unicode="&#xf8ff;" 
d="M0 0v700h500v-700h-500zM81 49h339l-170 255zM49 96l171 254l-171 254v-508zM450 96v508l-171 -254zM250 395l170 255h-339z" />
    <glyph glyph-name="ff" unicode="&#xfb00;" horiz-adv-x="808" 
d="M85 0l0.000976562 388.999h-63v149h63v12c0 62.667 15.333 109.334 46 140.001c31.333 31.333 78.333 47 141 47c49.333 0 90.666 -5 123.999 -15v-134c-23.333 7.33301 -47 11 -71 11c-36 0 -54 -17 -54 -51v-13h124v-146h-121v-389h-189zM489.001 -0.000976562
l0.000976562 388.999h-64v146h64v15c0 62.667 15.333 109.334 46 140.001c30.667 31.333 77.667 47 141 47c49.333 0 90.666 -5 123.999 -15v-134c-23.333 7.33301 -47 11 -71 11c-36 0 -54 -17 -54 -51v-13h124v-146h-121v-389h-189z" />
    <glyph glyph-name=".null" horiz-adv-x="0" 
 />
    <glyph glyph-name="nonmarkingreturn" horiz-adv-x="333" 
 />
    <glyph glyph-name="nbspace" horiz-adv-x="277" 
 />
    </font>
</defs>
</svg>
